<mxfile host="65bd71144e">
    <diagram id="2FmloWvAhfQEArfi7FaQ" name="Page-1">
        <mxGraphModel dx="6396" dy="3128" grid="1" gridSize="10" guides="1" tooltips="1" connect="1" arrows="1" fold="1" page="1" pageScale="1" pageWidth="1920" pageHeight="1200" math="0" shadow="0">
            <root>
                <mxCell id="0"/>
                <mxCell id="1" parent="0"/>
                <mxCell id="679" value="" style="group;fontSize=12;" parent="1" vertex="1" connectable="0">
                    <mxGeometry x="160" y="1275" width="1600" height="1050" as="geometry"/>
                </mxCell>
                <mxCell id="680" value="" style="strokeWidth=1;shadow=0;dashed=0;align=center;html=1;shape=mxgraph.mockup.containers.browserWindow;rSize=0;strokeColor=#666666;strokeColor2=#008cff;strokeColor3=#c4c4c4;mainText=,;recursiveResize=0;container=0;" parent="679" vertex="1">
                    <mxGeometry width="1599.9999999999998" height="1050" as="geometry"/>
                </mxCell>
                <mxCell id="681" value="Page 1" style="strokeWidth=1;shadow=0;dashed=0;align=center;html=1;shape=mxgraph.mockup.containers.anchor;fontSize=17;fontColor=#666666;align=left;container=0;" parent="679" vertex="1">
                    <mxGeometry x="49.99999999999999" y="10.500000000000002" width="91.66666666666664" height="22.75" as="geometry"/>
                </mxCell>
                <mxCell id="682" value="https://www.draw.io" style="strokeWidth=1;shadow=0;dashed=0;align=center;html=1;shape=mxgraph.mockup.containers.anchor;rSize=0;fontSize=17;fontColor=#666666;align=left;container=0;" parent="679" vertex="1">
                    <mxGeometry x="108.33333333333331" y="52.5" width="208.3333333333333" height="22.75" as="geometry"/>
                </mxCell>
                <mxCell id="683" value="" style="rounded=0;whiteSpace=wrap;html=1;fontFamily=Verdana;fontSize=30;container=0;" parent="679" vertex="1">
                    <mxGeometry y="96.25" width="1599.9999999999998" height="105" as="geometry"/>
                </mxCell>
                <mxCell id="684" value="" style="rounded=0;whiteSpace=wrap;html=1;fontFamily=Verdana;fontSize=30;container=0;" parent="679" vertex="1">
                    <mxGeometry y="96.25" width="374.99999999999994" height="105" as="geometry"/>
                </mxCell>
                <mxCell id="686" value="" style="rounded=0;whiteSpace=wrap;html=1;fontFamily=Verdana;fontSize=30;container=0;" parent="679" vertex="1">
                    <mxGeometry y="201.25000000000003" width="374.99999999999994" height="140" as="geometry"/>
                </mxCell>
                <mxCell id="687" value="" style="ellipse;whiteSpace=wrap;html=1;aspect=fixed;fontFamily=Verdana;fontSize=30;container=0;" parent="679" vertex="1">
                    <mxGeometry x="14.58" y="224.38" width="93.75" height="93.75" as="geometry"/>
                </mxCell>
                <mxCell id="688" value="John Doe&lt;br style=&quot;font-size: 25px&quot;&gt;&lt;i&gt;&lt;font style=&quot;font-weight: normal ; font-size: 18px&quot;&gt;Contrôleur de Gestion&lt;/font&gt;&lt;/i&gt;" style="text;html=1;strokeColor=none;fillColor=none;align=left;verticalAlign=middle;whiteSpace=wrap;rounded=0;fontFamily=Verdana;fontSize=25;container=0;fontStyle=1" parent="679" vertex="1">
                    <mxGeometry x="125" y="234.06" width="240" height="74.38" as="geometry"/>
                </mxCell>
                <mxCell id="689" value="ICONES" style="rounded=0;whiteSpace=wrap;html=1;fontFamily=Verdana;fontSize=36;container=0;" parent="679" vertex="1">
                    <mxGeometry x="1233.333333333333" y="122.50000000000001" width="341.6666666666666" height="52.5" as="geometry"/>
                </mxCell>
                <mxCell id="690" value="LOGO" style="rounded=0;whiteSpace=wrap;html=1;fontFamily=Verdana;fontSize=36;container=0;" parent="679" vertex="1">
                    <mxGeometry x="108.33333333333331" y="122.50000000000001" width="158.3333333333333" height="52.5" as="geometry"/>
                </mxCell>
                <mxCell id="691" value="Panneau Admin" style="rounded=0;whiteSpace=wrap;html=1;fontFamily=Verdana;fontSize=36;container=0;" parent="679" vertex="1">
                    <mxGeometry x="433.33" y="122.5" width="366.67" height="52.5" as="geometry"/>
                </mxCell>
                <mxCell id="706" value="" style="ellipse;whiteSpace=wrap;html=1;aspect=fixed;fontSize=30;" parent="679" vertex="1">
                    <mxGeometry x="345" y="237.31" width="61.87" height="61.87" as="geometry"/>
                </mxCell>
                <mxCell id="707" value="" style="triangle;whiteSpace=wrap;html=1;fontSize=18;" parent="679" vertex="1">
                    <mxGeometry x="365.44" y="250.25" width="27" height="36" as="geometry"/>
                </mxCell>
                <mxCell id="847" value="Gestion des utilisateurs" style="text;html=1;strokeColor=none;fillColor=none;align=center;verticalAlign=middle;whiteSpace=wrap;rounded=0;fontSize=30;" parent="679" vertex="1">
                    <mxGeometry x="433.33" y="237.31" width="360" height="30" as="geometry"/>
                </mxCell>
                <mxCell id="848" value="Ajouter" style="rounded=1;whiteSpace=wrap;html=1;fontSize=30;" parent="679" vertex="1">
                    <mxGeometry x="1390" y="224.38" width="140" height="65" as="geometry"/>
                </mxCell>
                <mxCell id="867" value="" style="sketch=0;outlineConnect=0;fillColor=#eeeeee;strokeColor=#36393d;dashed=0;verticalLabelPosition=bottom;verticalAlign=top;align=center;html=1;fontSize=12;fontStyle=0;aspect=fixed;pointerEvents=1;shape=mxgraph.aws4.user;" parent="679" vertex="1">
                    <mxGeometry x="30.460000000000008" y="240.25" width="62" height="62" as="geometry"/>
                </mxCell>
                <mxCell id="774" value="" style="shape=table;startSize=0;container=1;collapsible=0;childLayout=tableLayout;fontSize=20;" parent="1" vertex="1">
                    <mxGeometry x="600" y="1590" width="1090" height="630" as="geometry"/>
                </mxCell>
                <mxCell id="775" value="" style="shape=partialRectangle;collapsible=0;dropTarget=0;pointerEvents=0;fillColor=none;top=0;left=0;bottom=0;right=0;points=[[0,0.5],[1,0.5]];portConstraint=eastwest;fontSize=20;" parent="774" vertex="1">
                    <mxGeometry width="1090" height="53" as="geometry"/>
                </mxCell>
                <mxCell id="776" value="id" style="shape=partialRectangle;html=1;whiteSpace=wrap;connectable=0;overflow=hidden;fillColor=none;top=0;left=0;bottom=0;right=0;pointerEvents=1;fontSize=20;" parent="775" vertex="1">
                    <mxGeometry width="70" height="53" as="geometry">
                        <mxRectangle width="70" height="53" as="alternateBounds"/>
                    </mxGeometry>
                </mxCell>
                <mxCell id="777" value="Nom" style="shape=partialRectangle;html=1;whiteSpace=wrap;connectable=0;overflow=hidden;fillColor=none;top=0;left=0;bottom=0;right=0;pointerEvents=1;fontSize=20;" parent="775" vertex="1">
                    <mxGeometry x="70" width="170" height="53" as="geometry">
                        <mxRectangle width="170" height="53" as="alternateBounds"/>
                    </mxGeometry>
                </mxCell>
                <mxCell id="778" value="Email" style="shape=partialRectangle;html=1;whiteSpace=wrap;connectable=0;overflow=hidden;fillColor=none;top=0;left=0;bottom=0;right=0;pointerEvents=1;fontSize=20;" parent="775" vertex="1">
                    <mxGeometry x="240" width="490" height="53" as="geometry">
                        <mxRectangle width="490" height="53" as="alternateBounds"/>
                    </mxGeometry>
                </mxCell>
                <mxCell id="779" value="Rôle" style="shape=partialRectangle;html=1;whiteSpace=wrap;connectable=0;overflow=hidden;fillColor=none;top=0;left=0;bottom=0;right=0;pointerEvents=1;fontSize=20;" parent="775" vertex="1">
                    <mxGeometry x="730" width="220" height="53" as="geometry">
                        <mxRectangle width="220" height="53" as="alternateBounds"/>
                    </mxGeometry>
                </mxCell>
                <mxCell id="780" value="Actions" style="shape=partialRectangle;html=1;whiteSpace=wrap;connectable=0;overflow=hidden;fillColor=none;top=0;left=0;bottom=0;right=0;pointerEvents=1;fontSize=20;" parent="775" vertex="1">
                    <mxGeometry x="950" width="140" height="53" as="geometry">
                        <mxRectangle width="140" height="53" as="alternateBounds"/>
                    </mxGeometry>
                </mxCell>
                <mxCell id="781" value="" style="shape=partialRectangle;collapsible=0;dropTarget=0;pointerEvents=0;fillColor=none;top=0;left=0;bottom=0;right=0;points=[[0,0.5],[1,0.5]];portConstraint=eastwest;fontSize=20;" parent="774" vertex="1">
                    <mxGeometry y="53" width="1090" height="52" as="geometry"/>
                </mxCell>
                <mxCell id="782" value="1" style="shape=partialRectangle;html=1;whiteSpace=wrap;connectable=0;overflow=hidden;fillColor=none;top=0;left=0;bottom=0;right=0;pointerEvents=1;fontSize=20;" parent="781" vertex="1">
                    <mxGeometry width="70" height="52" as="geometry">
                        <mxRectangle width="70" height="52" as="alternateBounds"/>
                    </mxGeometry>
                </mxCell>
                <mxCell id="783" value="John Doe" style="shape=partialRectangle;html=1;whiteSpace=wrap;connectable=0;overflow=hidden;fillColor=none;top=0;left=0;bottom=0;right=0;pointerEvents=1;fontSize=20;" parent="781" vertex="1">
                    <mxGeometry x="70" width="170" height="52" as="geometry">
                        <mxRectangle width="170" height="52" as="alternateBounds"/>
                    </mxGeometry>
                </mxCell>
                <mxCell id="784" value="John.doe@entreprise.com" style="shape=partialRectangle;html=1;whiteSpace=wrap;connectable=0;overflow=hidden;fillColor=none;top=0;left=0;bottom=0;right=0;pointerEvents=1;fontSize=20;" parent="781" vertex="1">
                    <mxGeometry x="240" width="490" height="52" as="geometry">
                        <mxRectangle width="490" height="52" as="alternateBounds"/>
                    </mxGeometry>
                </mxCell>
                <mxCell id="785" value="Admin" style="shape=partialRectangle;html=1;whiteSpace=wrap;connectable=0;overflow=hidden;fillColor=none;top=0;left=0;bottom=0;right=0;pointerEvents=1;fontSize=20;" parent="781" vertex="1">
                    <mxGeometry x="730" width="220" height="52" as="geometry">
                        <mxRectangle width="220" height="52" as="alternateBounds"/>
                    </mxGeometry>
                </mxCell>
                <mxCell id="786" value="" style="shape=partialRectangle;html=1;whiteSpace=wrap;connectable=0;overflow=hidden;fillColor=none;top=0;left=0;bottom=0;right=0;pointerEvents=1;fontSize=20;" parent="781" vertex="1">
                    <mxGeometry x="950" width="140" height="52" as="geometry">
                        <mxRectangle width="140" height="52" as="alternateBounds"/>
                    </mxGeometry>
                </mxCell>
                <mxCell id="787" value="" style="shape=partialRectangle;collapsible=0;dropTarget=0;pointerEvents=0;fillColor=none;top=0;left=0;bottom=0;right=0;points=[[0,0.5],[1,0.5]];portConstraint=eastwest;fontSize=20;" parent="774" vertex="1">
                    <mxGeometry y="105" width="1090" height="53" as="geometry"/>
                </mxCell>
                <mxCell id="788" value="2" style="shape=partialRectangle;html=1;whiteSpace=wrap;connectable=0;overflow=hidden;fillColor=none;top=0;left=0;bottom=0;right=0;pointerEvents=1;fontSize=20;" parent="787" vertex="1">
                    <mxGeometry width="70" height="53" as="geometry">
                        <mxRectangle width="70" height="53" as="alternateBounds"/>
                    </mxGeometry>
                </mxCell>
                <mxCell id="789" value="Jane Doe" style="shape=partialRectangle;html=1;whiteSpace=wrap;connectable=0;overflow=hidden;fillColor=none;top=0;left=0;bottom=0;right=0;pointerEvents=1;fontSize=20;" parent="787" vertex="1">
                    <mxGeometry x="70" width="170" height="53" as="geometry">
                        <mxRectangle width="170" height="53" as="alternateBounds"/>
                    </mxGeometry>
                </mxCell>
                <mxCell id="790" value="jane.doe@entreprise.com" style="shape=partialRectangle;html=1;whiteSpace=wrap;connectable=0;overflow=hidden;fillColor=none;top=0;left=0;bottom=0;right=0;pointerEvents=1;fontSize=20;" parent="787" vertex="1">
                    <mxGeometry x="240" width="490" height="53" as="geometry">
                        <mxRectangle width="490" height="53" as="alternateBounds"/>
                    </mxGeometry>
                </mxCell>
                <mxCell id="791" value="Contrôle de gestion" style="shape=partialRectangle;html=1;whiteSpace=wrap;connectable=0;overflow=hidden;fillColor=none;top=0;left=0;bottom=0;right=0;pointerEvents=1;fontSize=20;" parent="787" vertex="1">
                    <mxGeometry x="730" width="220" height="53" as="geometry">
                        <mxRectangle width="220" height="53" as="alternateBounds"/>
                    </mxGeometry>
                </mxCell>
                <mxCell id="792" value="" style="shape=partialRectangle;html=1;whiteSpace=wrap;connectable=0;overflow=hidden;fillColor=none;top=0;left=0;bottom=0;right=0;pointerEvents=1;fontSize=20;" parent="787" vertex="1">
                    <mxGeometry x="950" width="140" height="53" as="geometry">
                        <mxRectangle width="140" height="53" as="alternateBounds"/>
                    </mxGeometry>
                </mxCell>
                <mxCell id="793" value="" style="shape=partialRectangle;collapsible=0;dropTarget=0;pointerEvents=0;fillColor=none;top=0;left=0;bottom=0;right=0;points=[[0,0.5],[1,0.5]];portConstraint=eastwest;fontSize=20;" parent="774" vertex="1">
                    <mxGeometry y="158" width="1090" height="52" as="geometry"/>
                </mxCell>
                <mxCell id="794" value="3" style="shape=partialRectangle;html=1;whiteSpace=wrap;connectable=0;overflow=hidden;fillColor=none;top=0;left=0;bottom=0;right=0;pointerEvents=1;fontSize=20;" parent="793" vertex="1">
                    <mxGeometry width="70" height="52" as="geometry">
                        <mxRectangle width="70" height="52" as="alternateBounds"/>
                    </mxGeometry>
                </mxCell>
                <mxCell id="795" value="Martin Durand" style="shape=partialRectangle;html=1;whiteSpace=wrap;connectable=0;overflow=hidden;fillColor=none;top=0;left=0;bottom=0;right=0;pointerEvents=1;fontSize=20;" parent="793" vertex="1">
                    <mxGeometry x="70" width="170" height="52" as="geometry">
                        <mxRectangle width="170" height="52" as="alternateBounds"/>
                    </mxGeometry>
                </mxCell>
                <mxCell id="796" value="martin.durand@entrprise.com" style="shape=partialRectangle;html=1;whiteSpace=wrap;connectable=0;overflow=hidden;fillColor=none;top=0;left=0;bottom=0;right=0;pointerEvents=1;fontSize=20;" parent="793" vertex="1">
                    <mxGeometry x="240" width="490" height="52" as="geometry">
                        <mxRectangle width="490" height="52" as="alternateBounds"/>
                    </mxGeometry>
                </mxCell>
                <mxCell id="797" value="Commercial" style="shape=partialRectangle;html=1;whiteSpace=wrap;connectable=0;overflow=hidden;fillColor=none;top=0;left=0;bottom=0;right=0;pointerEvents=1;fontSize=20;" parent="793" vertex="1">
                    <mxGeometry x="730" width="220" height="52" as="geometry">
                        <mxRectangle width="220" height="52" as="alternateBounds"/>
                    </mxGeometry>
                </mxCell>
                <mxCell id="798" value="" style="shape=partialRectangle;html=1;whiteSpace=wrap;connectable=0;overflow=hidden;fillColor=none;top=0;left=0;bottom=0;right=0;pointerEvents=1;fontSize=20;" parent="793" vertex="1">
                    <mxGeometry x="950" width="140" height="52" as="geometry">
                        <mxRectangle width="140" height="52" as="alternateBounds"/>
                    </mxGeometry>
                </mxCell>
                <mxCell id="799" value="" style="shape=partialRectangle;collapsible=0;dropTarget=0;pointerEvents=0;fillColor=none;top=0;left=0;bottom=0;right=0;points=[[0,0.5],[1,0.5]];portConstraint=eastwest;fontSize=20;" parent="774" vertex="1">
                    <mxGeometry y="210" width="1090" height="53" as="geometry"/>
                </mxCell>
                <mxCell id="800" value="4" style="shape=partialRectangle;html=1;whiteSpace=wrap;connectable=0;overflow=hidden;fillColor=none;top=0;left=0;bottom=0;right=0;pointerEvents=1;fontSize=20;" parent="799" vertex="1">
                    <mxGeometry width="70" height="53" as="geometry">
                        <mxRectangle width="70" height="53" as="alternateBounds"/>
                    </mxGeometry>
                </mxCell>
                <mxCell id="801" value="" style="shape=partialRectangle;html=1;whiteSpace=wrap;connectable=0;overflow=hidden;fillColor=none;top=0;left=0;bottom=0;right=0;pointerEvents=1;fontSize=20;" parent="799" vertex="1">
                    <mxGeometry x="70" width="170" height="53" as="geometry">
                        <mxRectangle width="170" height="53" as="alternateBounds"/>
                    </mxGeometry>
                </mxCell>
                <mxCell id="802" value="" style="shape=partialRectangle;html=1;whiteSpace=wrap;connectable=0;overflow=hidden;fillColor=none;top=0;left=0;bottom=0;right=0;pointerEvents=1;fontSize=20;" parent="799" vertex="1">
                    <mxGeometry x="240" width="490" height="53" as="geometry">
                        <mxRectangle width="490" height="53" as="alternateBounds"/>
                    </mxGeometry>
                </mxCell>
                <mxCell id="803" value="" style="shape=partialRectangle;html=1;whiteSpace=wrap;connectable=0;overflow=hidden;fillColor=none;top=0;left=0;bottom=0;right=0;pointerEvents=1;fontSize=20;" parent="799" vertex="1">
                    <mxGeometry x="730" width="220" height="53" as="geometry">
                        <mxRectangle width="220" height="53" as="alternateBounds"/>
                    </mxGeometry>
                </mxCell>
                <mxCell id="804" value="" style="shape=partialRectangle;html=1;whiteSpace=wrap;connectable=0;overflow=hidden;fillColor=none;top=0;left=0;bottom=0;right=0;pointerEvents=1;fontSize=20;" parent="799" vertex="1">
                    <mxGeometry x="950" width="140" height="53" as="geometry">
                        <mxRectangle width="140" height="53" as="alternateBounds"/>
                    </mxGeometry>
                </mxCell>
                <mxCell id="805" value="" style="shape=partialRectangle;collapsible=0;dropTarget=0;pointerEvents=0;fillColor=none;top=0;left=0;bottom=0;right=0;points=[[0,0.5],[1,0.5]];portConstraint=eastwest;fontSize=20;" parent="774" vertex="1">
                    <mxGeometry y="263" width="1090" height="52" as="geometry"/>
                </mxCell>
                <mxCell id="806" value="5" style="shape=partialRectangle;html=1;whiteSpace=wrap;connectable=0;overflow=hidden;fillColor=none;top=0;left=0;bottom=0;right=0;pointerEvents=1;fontSize=20;" parent="805" vertex="1">
                    <mxGeometry width="70" height="52" as="geometry">
                        <mxRectangle width="70" height="52" as="alternateBounds"/>
                    </mxGeometry>
                </mxCell>
                <mxCell id="807" value="" style="shape=partialRectangle;html=1;whiteSpace=wrap;connectable=0;overflow=hidden;fillColor=none;top=0;left=0;bottom=0;right=0;pointerEvents=1;fontSize=20;" parent="805" vertex="1">
                    <mxGeometry x="70" width="170" height="52" as="geometry">
                        <mxRectangle width="170" height="52" as="alternateBounds"/>
                    </mxGeometry>
                </mxCell>
                <mxCell id="808" value="" style="shape=partialRectangle;html=1;whiteSpace=wrap;connectable=0;overflow=hidden;fillColor=none;top=0;left=0;bottom=0;right=0;pointerEvents=1;fontSize=20;" parent="805" vertex="1">
                    <mxGeometry x="240" width="490" height="52" as="geometry">
                        <mxRectangle width="490" height="52" as="alternateBounds"/>
                    </mxGeometry>
                </mxCell>
                <mxCell id="809" value="" style="shape=partialRectangle;html=1;whiteSpace=wrap;connectable=0;overflow=hidden;fillColor=none;top=0;left=0;bottom=0;right=0;pointerEvents=1;fontSize=20;" parent="805" vertex="1">
                    <mxGeometry x="730" width="220" height="52" as="geometry">
                        <mxRectangle width="220" height="52" as="alternateBounds"/>
                    </mxGeometry>
                </mxCell>
                <mxCell id="810" value="" style="shape=partialRectangle;html=1;whiteSpace=wrap;connectable=0;overflow=hidden;fillColor=none;top=0;left=0;bottom=0;right=0;pointerEvents=1;fontSize=20;" parent="805" vertex="1">
                    <mxGeometry x="950" width="140" height="52" as="geometry">
                        <mxRectangle width="140" height="52" as="alternateBounds"/>
                    </mxGeometry>
                </mxCell>
                <mxCell id="811" value="" style="shape=partialRectangle;collapsible=0;dropTarget=0;pointerEvents=0;fillColor=none;top=0;left=0;bottom=0;right=0;points=[[0,0.5],[1,0.5]];portConstraint=eastwest;fontSize=20;" parent="774" vertex="1">
                    <mxGeometry y="315" width="1090" height="53" as="geometry"/>
                </mxCell>
                <mxCell id="812" value="6" style="shape=partialRectangle;html=1;whiteSpace=wrap;connectable=0;overflow=hidden;fillColor=none;top=0;left=0;bottom=0;right=0;pointerEvents=1;fontSize=20;" parent="811" vertex="1">
                    <mxGeometry width="70" height="53" as="geometry">
                        <mxRectangle width="70" height="53" as="alternateBounds"/>
                    </mxGeometry>
                </mxCell>
                <mxCell id="813" value="" style="shape=partialRectangle;html=1;whiteSpace=wrap;connectable=0;overflow=hidden;fillColor=none;top=0;left=0;bottom=0;right=0;pointerEvents=1;fontSize=20;" parent="811" vertex="1">
                    <mxGeometry x="70" width="170" height="53" as="geometry">
                        <mxRectangle width="170" height="53" as="alternateBounds"/>
                    </mxGeometry>
                </mxCell>
                <mxCell id="814" value="" style="shape=partialRectangle;html=1;whiteSpace=wrap;connectable=0;overflow=hidden;fillColor=none;top=0;left=0;bottom=0;right=0;pointerEvents=1;fontSize=20;" parent="811" vertex="1">
                    <mxGeometry x="240" width="490" height="53" as="geometry">
                        <mxRectangle width="490" height="53" as="alternateBounds"/>
                    </mxGeometry>
                </mxCell>
                <mxCell id="815" value="" style="shape=partialRectangle;html=1;whiteSpace=wrap;connectable=0;overflow=hidden;fillColor=none;top=0;left=0;bottom=0;right=0;pointerEvents=1;fontSize=20;" parent="811" vertex="1">
                    <mxGeometry x="730" width="220" height="53" as="geometry">
                        <mxRectangle width="220" height="53" as="alternateBounds"/>
                    </mxGeometry>
                </mxCell>
                <mxCell id="816" value="" style="shape=partialRectangle;html=1;whiteSpace=wrap;connectable=0;overflow=hidden;fillColor=none;top=0;left=0;bottom=0;right=0;pointerEvents=1;fontSize=20;" parent="811" vertex="1">
                    <mxGeometry x="950" width="140" height="53" as="geometry">
                        <mxRectangle width="140" height="53" as="alternateBounds"/>
                    </mxGeometry>
                </mxCell>
                <mxCell id="817" value="" style="shape=partialRectangle;collapsible=0;dropTarget=0;pointerEvents=0;fillColor=none;top=0;left=0;bottom=0;right=0;points=[[0,0.5],[1,0.5]];portConstraint=eastwest;fontSize=20;" parent="774" vertex="1">
                    <mxGeometry y="368" width="1090" height="52" as="geometry"/>
                </mxCell>
                <mxCell id="818" value="7" style="shape=partialRectangle;html=1;whiteSpace=wrap;connectable=0;overflow=hidden;fillColor=none;top=0;left=0;bottom=0;right=0;pointerEvents=1;fontSize=20;" parent="817" vertex="1">
                    <mxGeometry width="70" height="52" as="geometry">
                        <mxRectangle width="70" height="52" as="alternateBounds"/>
                    </mxGeometry>
                </mxCell>
                <mxCell id="819" value="" style="shape=partialRectangle;html=1;whiteSpace=wrap;connectable=0;overflow=hidden;fillColor=none;top=0;left=0;bottom=0;right=0;pointerEvents=1;fontSize=20;" parent="817" vertex="1">
                    <mxGeometry x="70" width="170" height="52" as="geometry">
                        <mxRectangle width="170" height="52" as="alternateBounds"/>
                    </mxGeometry>
                </mxCell>
                <mxCell id="820" value="" style="shape=partialRectangle;html=1;whiteSpace=wrap;connectable=0;overflow=hidden;fillColor=none;top=0;left=0;bottom=0;right=0;pointerEvents=1;fontSize=20;" parent="817" vertex="1">
                    <mxGeometry x="240" width="490" height="52" as="geometry">
                        <mxRectangle width="490" height="52" as="alternateBounds"/>
                    </mxGeometry>
                </mxCell>
                <mxCell id="821" value="" style="shape=partialRectangle;html=1;whiteSpace=wrap;connectable=0;overflow=hidden;fillColor=none;top=0;left=0;bottom=0;right=0;pointerEvents=1;fontSize=20;" parent="817" vertex="1">
                    <mxGeometry x="730" width="220" height="52" as="geometry">
                        <mxRectangle width="220" height="52" as="alternateBounds"/>
                    </mxGeometry>
                </mxCell>
                <mxCell id="822" value="" style="shape=partialRectangle;html=1;whiteSpace=wrap;connectable=0;overflow=hidden;fillColor=none;top=0;left=0;bottom=0;right=0;pointerEvents=1;fontSize=20;" parent="817" vertex="1">
                    <mxGeometry x="950" width="140" height="52" as="geometry">
                        <mxRectangle width="140" height="52" as="alternateBounds"/>
                    </mxGeometry>
                </mxCell>
                <mxCell id="823" value="" style="shape=partialRectangle;collapsible=0;dropTarget=0;pointerEvents=0;fillColor=none;top=0;left=0;bottom=0;right=0;points=[[0,0.5],[1,0.5]];portConstraint=eastwest;fontSize=20;" parent="774" vertex="1">
                    <mxGeometry y="420" width="1090" height="53" as="geometry"/>
                </mxCell>
                <mxCell id="824" value="8" style="shape=partialRectangle;html=1;whiteSpace=wrap;connectable=0;overflow=hidden;fillColor=none;top=0;left=0;bottom=0;right=0;pointerEvents=1;fontSize=20;" parent="823" vertex="1">
                    <mxGeometry width="70" height="53" as="geometry">
                        <mxRectangle width="70" height="53" as="alternateBounds"/>
                    </mxGeometry>
                </mxCell>
                <mxCell id="825" value="" style="shape=partialRectangle;html=1;whiteSpace=wrap;connectable=0;overflow=hidden;fillColor=none;top=0;left=0;bottom=0;right=0;pointerEvents=1;fontSize=20;" parent="823" vertex="1">
                    <mxGeometry x="70" width="170" height="53" as="geometry">
                        <mxRectangle width="170" height="53" as="alternateBounds"/>
                    </mxGeometry>
                </mxCell>
                <mxCell id="826" value="" style="shape=partialRectangle;html=1;whiteSpace=wrap;connectable=0;overflow=hidden;fillColor=none;top=0;left=0;bottom=0;right=0;pointerEvents=1;fontSize=20;" parent="823" vertex="1">
                    <mxGeometry x="240" width="490" height="53" as="geometry">
                        <mxRectangle width="490" height="53" as="alternateBounds"/>
                    </mxGeometry>
                </mxCell>
                <mxCell id="827" value="" style="shape=partialRectangle;html=1;whiteSpace=wrap;connectable=0;overflow=hidden;fillColor=none;top=0;left=0;bottom=0;right=0;pointerEvents=1;fontSize=20;" parent="823" vertex="1">
                    <mxGeometry x="730" width="220" height="53" as="geometry">
                        <mxRectangle width="220" height="53" as="alternateBounds"/>
                    </mxGeometry>
                </mxCell>
                <mxCell id="828" value="" style="shape=partialRectangle;html=1;whiteSpace=wrap;connectable=0;overflow=hidden;fillColor=none;top=0;left=0;bottom=0;right=0;pointerEvents=1;fontSize=20;" parent="823" vertex="1">
                    <mxGeometry x="950" width="140" height="53" as="geometry">
                        <mxRectangle width="140" height="53" as="alternateBounds"/>
                    </mxGeometry>
                </mxCell>
                <mxCell id="829" value="" style="shape=partialRectangle;collapsible=0;dropTarget=0;pointerEvents=0;fillColor=none;top=0;left=0;bottom=0;right=0;points=[[0,0.5],[1,0.5]];portConstraint=eastwest;fontSize=20;" parent="774" vertex="1">
                    <mxGeometry y="473" width="1090" height="52" as="geometry"/>
                </mxCell>
                <mxCell id="830" value="9" style="shape=partialRectangle;html=1;whiteSpace=wrap;connectable=0;overflow=hidden;fillColor=none;top=0;left=0;bottom=0;right=0;pointerEvents=1;fontSize=20;" parent="829" vertex="1">
                    <mxGeometry width="70" height="52" as="geometry">
                        <mxRectangle width="70" height="52" as="alternateBounds"/>
                    </mxGeometry>
                </mxCell>
                <mxCell id="831" value="" style="shape=partialRectangle;html=1;whiteSpace=wrap;connectable=0;overflow=hidden;fillColor=none;top=0;left=0;bottom=0;right=0;pointerEvents=1;fontSize=20;" parent="829" vertex="1">
                    <mxGeometry x="70" width="170" height="52" as="geometry">
                        <mxRectangle width="170" height="52" as="alternateBounds"/>
                    </mxGeometry>
                </mxCell>
                <mxCell id="832" value="" style="shape=partialRectangle;html=1;whiteSpace=wrap;connectable=0;overflow=hidden;fillColor=none;top=0;left=0;bottom=0;right=0;pointerEvents=1;fontSize=20;" parent="829" vertex="1">
                    <mxGeometry x="240" width="490" height="52" as="geometry">
                        <mxRectangle width="490" height="52" as="alternateBounds"/>
                    </mxGeometry>
                </mxCell>
                <mxCell id="833" value="" style="shape=partialRectangle;html=1;whiteSpace=wrap;connectable=0;overflow=hidden;fillColor=none;top=0;left=0;bottom=0;right=0;pointerEvents=1;fontSize=20;" parent="829" vertex="1">
                    <mxGeometry x="730" width="220" height="52" as="geometry">
                        <mxRectangle width="220" height="52" as="alternateBounds"/>
                    </mxGeometry>
                </mxCell>
                <mxCell id="834" value="" style="shape=partialRectangle;html=1;whiteSpace=wrap;connectable=0;overflow=hidden;fillColor=none;top=0;left=0;bottom=0;right=0;pointerEvents=1;fontSize=20;" parent="829" vertex="1">
                    <mxGeometry x="950" width="140" height="52" as="geometry">
                        <mxRectangle width="140" height="52" as="alternateBounds"/>
                    </mxGeometry>
                </mxCell>
                <mxCell id="835" value="" style="shape=partialRectangle;collapsible=0;dropTarget=0;pointerEvents=0;fillColor=none;top=0;left=0;bottom=0;right=0;points=[[0,0.5],[1,0.5]];portConstraint=eastwest;fontSize=20;" parent="774" vertex="1">
                    <mxGeometry y="525" width="1090" height="53" as="geometry"/>
                </mxCell>
                <mxCell id="836" value="10" style="shape=partialRectangle;html=1;whiteSpace=wrap;connectable=0;overflow=hidden;fillColor=none;top=0;left=0;bottom=0;right=0;pointerEvents=1;fontSize=20;" parent="835" vertex="1">
                    <mxGeometry width="70" height="53" as="geometry">
                        <mxRectangle width="70" height="53" as="alternateBounds"/>
                    </mxGeometry>
                </mxCell>
                <mxCell id="837" value="" style="shape=partialRectangle;html=1;whiteSpace=wrap;connectable=0;overflow=hidden;fillColor=none;top=0;left=0;bottom=0;right=0;pointerEvents=1;fontSize=20;" parent="835" vertex="1">
                    <mxGeometry x="70" width="170" height="53" as="geometry">
                        <mxRectangle width="170" height="53" as="alternateBounds"/>
                    </mxGeometry>
                </mxCell>
                <mxCell id="838" value="" style="shape=partialRectangle;html=1;whiteSpace=wrap;connectable=0;overflow=hidden;fillColor=none;top=0;left=0;bottom=0;right=0;pointerEvents=1;fontSize=20;" parent="835" vertex="1">
                    <mxGeometry x="240" width="490" height="53" as="geometry">
                        <mxRectangle width="490" height="53" as="alternateBounds"/>
                    </mxGeometry>
                </mxCell>
                <mxCell id="839" value="" style="shape=partialRectangle;html=1;whiteSpace=wrap;connectable=0;overflow=hidden;fillColor=none;top=0;left=0;bottom=0;right=0;pointerEvents=1;fontSize=20;" parent="835" vertex="1">
                    <mxGeometry x="730" width="220" height="53" as="geometry">
                        <mxRectangle width="220" height="53" as="alternateBounds"/>
                    </mxGeometry>
                </mxCell>
                <mxCell id="840" value="" style="shape=partialRectangle;html=1;whiteSpace=wrap;connectable=0;overflow=hidden;fillColor=none;top=0;left=0;bottom=0;right=0;pointerEvents=1;fontSize=20;" parent="835" vertex="1">
                    <mxGeometry x="950" width="140" height="53" as="geometry">
                        <mxRectangle width="140" height="53" as="alternateBounds"/>
                    </mxGeometry>
                </mxCell>
                <mxCell id="841" value="" style="shape=partialRectangle;collapsible=0;dropTarget=0;pointerEvents=0;fillColor=none;top=0;left=0;bottom=0;right=0;points=[[0,0.5],[1,0.5]];portConstraint=eastwest;fontSize=20;" parent="774" vertex="1">
                    <mxGeometry y="578" width="1090" height="52" as="geometry"/>
                </mxCell>
                <mxCell id="842" value="11" style="shape=partialRectangle;html=1;whiteSpace=wrap;connectable=0;overflow=hidden;fillColor=none;top=0;left=0;bottom=0;right=0;pointerEvents=1;fontSize=20;" parent="841" vertex="1">
                    <mxGeometry width="70" height="52" as="geometry">
                        <mxRectangle width="70" height="52" as="alternateBounds"/>
                    </mxGeometry>
                </mxCell>
                <mxCell id="843" value="" style="shape=partialRectangle;html=1;whiteSpace=wrap;connectable=0;overflow=hidden;fillColor=none;top=0;left=0;bottom=0;right=0;pointerEvents=1;fontSize=20;" parent="841" vertex="1">
                    <mxGeometry x="70" width="170" height="52" as="geometry">
                        <mxRectangle width="170" height="52" as="alternateBounds"/>
                    </mxGeometry>
                </mxCell>
                <mxCell id="844" value="" style="shape=partialRectangle;html=1;whiteSpace=wrap;connectable=0;overflow=hidden;fillColor=none;top=0;left=0;bottom=0;right=0;pointerEvents=1;fontSize=20;" parent="841" vertex="1">
                    <mxGeometry x="240" width="490" height="52" as="geometry">
                        <mxRectangle width="490" height="52" as="alternateBounds"/>
                    </mxGeometry>
                </mxCell>
                <mxCell id="845" value="" style="shape=partialRectangle;html=1;whiteSpace=wrap;connectable=0;overflow=hidden;fillColor=none;top=0;left=0;bottom=0;right=0;pointerEvents=1;fontSize=20;" parent="841" vertex="1">
                    <mxGeometry x="730" width="220" height="52" as="geometry">
                        <mxRectangle width="220" height="52" as="alternateBounds"/>
                    </mxGeometry>
                </mxCell>
                <mxCell id="846" value="" style="shape=partialRectangle;html=1;whiteSpace=wrap;connectable=0;overflow=hidden;fillColor=none;top=0;left=0;bottom=0;right=0;pointerEvents=1;fontSize=20;" parent="841" vertex="1">
                    <mxGeometry x="950" width="140" height="52" as="geometry">
                        <mxRectangle width="140" height="52" as="alternateBounds"/>
                    </mxGeometry>
                </mxCell>
                <mxCell id="852" value="" style="group" parent="1" vertex="1" connectable="0">
                    <mxGeometry x="1570" y="1651.88" width="100" height="33.75" as="geometry"/>
                </mxCell>
                <mxCell id="849" value="" style="sketch=0;pointerEvents=1;shadow=0;dashed=0;html=1;strokeColor=none;fillColor=#505050;labelPosition=center;verticalLabelPosition=bottom;verticalAlign=top;outlineConnect=0;align=center;shape=mxgraph.office.concepts.writing_pen;fontSize=30;" parent="852" vertex="1">
                    <mxGeometry width="30" height="33.75" as="geometry"/>
                </mxCell>
                <mxCell id="851" value="X" style="text;html=1;strokeColor=none;fillColor=none;align=center;verticalAlign=middle;whiteSpace=wrap;rounded=0;fontSize=30;" parent="852" vertex="1">
                    <mxGeometry x="40" y="2" width="60" height="30" as="geometry"/>
                </mxCell>
                <mxCell id="853" value="" style="group" parent="1" vertex="1" connectable="0">
                    <mxGeometry x="1570" y="1704.88" width="100" height="33.75" as="geometry"/>
                </mxCell>
                <mxCell id="854" value="" style="sketch=0;pointerEvents=1;shadow=0;dashed=0;html=1;strokeColor=none;fillColor=#505050;labelPosition=center;verticalLabelPosition=bottom;verticalAlign=top;outlineConnect=0;align=center;shape=mxgraph.office.concepts.writing_pen;fontSize=30;" parent="853" vertex="1">
                    <mxGeometry width="30" height="33.75" as="geometry"/>
                </mxCell>
                <mxCell id="855" value="X" style="text;html=1;strokeColor=none;fillColor=none;align=center;verticalAlign=middle;whiteSpace=wrap;rounded=0;fontSize=30;" parent="853" vertex="1">
                    <mxGeometry x="40" y="2" width="60" height="30" as="geometry"/>
                </mxCell>
                <mxCell id="856" value="" style="group" parent="1" vertex="1" connectable="0">
                    <mxGeometry x="1570" y="1756.88" width="100" height="33.75" as="geometry"/>
                </mxCell>
                <mxCell id="857" value="" style="sketch=0;pointerEvents=1;shadow=0;dashed=0;html=1;strokeColor=none;fillColor=#505050;labelPosition=center;verticalLabelPosition=bottom;verticalAlign=top;outlineConnect=0;align=center;shape=mxgraph.office.concepts.writing_pen;fontSize=30;" parent="856" vertex="1">
                    <mxGeometry width="30" height="33.75" as="geometry"/>
                </mxCell>
                <mxCell id="858" value="X" style="text;html=1;strokeColor=none;fillColor=none;align=center;verticalAlign=middle;whiteSpace=wrap;rounded=0;fontSize=30;" parent="856" vertex="1">
                    <mxGeometry x="40" y="2" width="60" height="30" as="geometry"/>
                </mxCell>
                <mxCell id="859" value="" style="group" parent="1" vertex="1" connectable="0">
                    <mxGeometry x="-1775" y="130" width="1630" height="1060" as="geometry"/>
                </mxCell>
                <mxCell id="10" value="" style="strokeWidth=1;shadow=0;dashed=0;align=center;html=1;shape=mxgraph.mockup.containers.browserWindow;rSize=0;strokeColor=#666666;strokeColor2=#008cff;strokeColor3=#c4c4c4;mainText=,;recursiveResize=0;container=0;" parent="859" vertex="1">
                    <mxGeometry width="1600" height="1050" as="geometry"/>
                </mxCell>
                <mxCell id="11" value="Page 1" style="strokeWidth=1;shadow=0;dashed=0;align=center;html=1;shape=mxgraph.mockup.containers.anchor;fontSize=17;fontColor=#666666;align=left;" parent="859" vertex="1">
                    <mxGeometry x="80" y="20.5" width="91.66666666666666" height="22.75" as="geometry"/>
                </mxCell>
                <mxCell id="12" value="https://www.draw.io" style="strokeWidth=1;shadow=0;dashed=0;align=center;html=1;shape=mxgraph.mockup.containers.anchor;rSize=0;fontSize=17;fontColor=#666666;align=left;" parent="859" vertex="1">
                    <mxGeometry x="138.33333333333337" y="62.5" width="208.33333333333331" height="22.75" as="geometry"/>
                </mxCell>
                <mxCell id="675" value="Footer copyright FinDev&amp;nbsp;" style="rounded=0;whiteSpace=wrap;html=1;fontSize=20;" parent="859" vertex="1">
                    <mxGeometry y="1000" width="1600" height="60" as="geometry"/>
                </mxCell>
                <mxCell id="660" value="" style="group" parent="859" vertex="1" connectable="0">
                    <mxGeometry x="320" y="308" width="425" height="505" as="geometry"/>
                </mxCell>
                <mxCell id="13" value="" style="rounded=1;whiteSpace=wrap;html=1;glass=0;shadow=0;sketch=0;container=0;" parent="660" vertex="1">
                    <mxGeometry y="63.125" width="425" height="441.87500000000006" as="geometry"/>
                </mxCell>
                <mxCell id="450" value="Email" style="rounded=0;whiteSpace=wrap;html=1;fontFamily=Verdana;fontSize=20;container=0;" parent="660" vertex="1">
                    <mxGeometry x="45.33333333333326" y="190.75" width="333.33333333333337" height="52.5" as="geometry"/>
                </mxCell>
                <mxCell id="452" value="" style="rounded=0;whiteSpace=wrap;html=1;fontFamily=Verdana;fontSize=12;container=0;" parent="660" vertex="1">
                    <mxGeometry x="45.33333333333326" y="190.75" width="50" height="52.5" as="geometry"/>
                </mxCell>
                <mxCell id="451" value="&lt;font style=&quot;font-size: 20px&quot;&gt;Password&lt;/font&gt;" style="rounded=0;whiteSpace=wrap;html=1;fontFamily=Verdana;fontSize=12;container=0;" parent="660" vertex="1">
                    <mxGeometry x="45.33333333333326" y="269.5000000000001" width="333.33333333333337" height="52.5" as="geometry"/>
                </mxCell>
                <mxCell id="453" value="" style="rounded=0;whiteSpace=wrap;html=1;fontFamily=Verdana;fontSize=12;container=0;" parent="660" vertex="1">
                    <mxGeometry x="45.33333333333326" y="269.5000000000001" width="50" height="52.5" as="geometry"/>
                </mxCell>
                <mxCell id="454" value="login" style="rounded=1;whiteSpace=wrap;html=1;fontFamily=Verdana;fontSize=30;sketch=0;container=0;" parent="660" vertex="1">
                    <mxGeometry x="112.5" y="417.5" width="200" height="52.5" as="geometry"/>
                </mxCell>
                <mxCell id="14" value="&lt;h1&gt;&lt;br&gt;&lt;/h1&gt;" style="ellipse;whiteSpace=wrap;html=1;aspect=fixed;container=0;" parent="660" vertex="1">
                    <mxGeometry x="150.5" width="123.76237623762376" height="123.76237623762376" as="geometry"/>
                </mxCell>
                <mxCell id="446" value="" style="shape=actor;whiteSpace=wrap;html=1;fontFamily=Verdana;fontSize=26;container=0;" parent="660" vertex="1">
                    <mxGeometry x="180.5" y="19.67500000000001" width="65" height="81.9" as="geometry"/>
                </mxCell>
                <mxCell id="447" value="Remember me" style="rounded=1;fillColor=#F0F2F5;strokeColor=#D8DCE3;align=left;verticalAlign=middle;fontStyle=0;fontSize=12;labelPosition=right;verticalLabelPosition=middle;spacingLeft=10;html=1;shadow=0;dashed=0;fontFamily=Verdana;container=0;" parent="660" vertex="1">
                    <mxGeometry x="69.16666666666663" y="365" width="10" height="10.5" as="geometry"/>
                </mxCell>
                <mxCell id="449" value="Forgot Password?" style="text;html=1;strokeColor=none;fillColor=none;align=center;verticalAlign=middle;whiteSpace=wrap;rounded=0;fontFamily=Verdana;fontSize=12;fontStyle=2;container=0;" parent="660" vertex="1">
                    <mxGeometry x="250" y="357.13" width="140" height="26.25" as="geometry"/>
                </mxCell>
                <mxCell id="661" value="" style="group" parent="859" vertex="1" connectable="0">
                    <mxGeometry x="855" y="308" width="425" height="505" as="geometry"/>
                </mxCell>
                <mxCell id="662" value="" style="rounded=1;whiteSpace=wrap;html=1;glass=0;shadow=0;sketch=0;container=0;" parent="661" vertex="1">
                    <mxGeometry y="63.125" width="425" height="441.87500000000006" as="geometry"/>
                </mxCell>
                <mxCell id="663" value="Email" style="rounded=0;whiteSpace=wrap;html=1;fontFamily=Verdana;fontSize=20;container=0;" parent="661" vertex="1">
                    <mxGeometry x="45.33333333333326" y="240.75" width="333.33333333333337" height="52.5" as="geometry"/>
                </mxCell>
                <mxCell id="664" value="" style="rounded=0;whiteSpace=wrap;html=1;fontFamily=Verdana;fontSize=12;container=0;" parent="661" vertex="1">
                    <mxGeometry x="45.33333333333326" y="240.75" width="50" height="52.5" as="geometry"/>
                </mxCell>
                <mxCell id="667" value="Continuer" style="rounded=1;whiteSpace=wrap;html=1;fontFamily=Verdana;fontSize=30;sketch=0;container=0;" parent="661" vertex="1">
                    <mxGeometry x="112.5" y="327.5" width="200" height="52.5" as="geometry"/>
                </mxCell>
                <mxCell id="668" value="&lt;h1&gt;&lt;br&gt;&lt;/h1&gt;" style="ellipse;whiteSpace=wrap;html=1;aspect=fixed;container=0;" parent="661" vertex="1">
                    <mxGeometry x="150.5" width="123.76237623762376" height="123.76237623762376" as="geometry"/>
                </mxCell>
                <mxCell id="669" value="" style="shape=actor;whiteSpace=wrap;html=1;fontFamily=Verdana;fontSize=26;container=0;" parent="661" vertex="1">
                    <mxGeometry x="180.5" y="19.67500000000001" width="65" height="81.9" as="geometry"/>
                </mxCell>
                <mxCell id="672" value="Entrez l'adresse mail associé à votre compte afin de recevoir un lien pour réinitialiser votre mot de passe" style="text;html=1;strokeColor=none;fillColor=none;align=center;verticalAlign=middle;whiteSpace=wrap;rounded=0;fontSize=20;" parent="661" vertex="1">
                    <mxGeometry x="45.33" y="140" width="333.33333333333337" height="80" as="geometry"/>
                </mxCell>
                <mxCell id="673" style="edgeStyle=none;html=1;exitX=1;exitY=0.5;exitDx=0;exitDy=0;entryX=0;entryY=0.5;entryDx=0;entryDy=0;strokeWidth=6;" parent="859" source="449" target="662" edge="1">
                    <mxGeometry relative="1" as="geometry"/>
                </mxCell>
                <mxCell id="881" value="" style="rounded=0;whiteSpace=wrap;html=1;fontSize=30;gradientColor=none;fillColor=default;glass=0;" parent="859" vertex="1">
                    <mxGeometry y="-120" width="1600" height="100" as="geometry"/>
                </mxCell>
                <mxCell id="882" value="X" style="text;html=1;strokeColor=none;fillColor=none;align=center;verticalAlign=middle;whiteSpace=wrap;rounded=0;glass=0;fontSize=30;" parent="859" vertex="1">
                    <mxGeometry x="1520" y="-85" width="60" height="30" as="geometry"/>
                </mxCell>
                <mxCell id="883" value="Un email avec la procédure pour réinitialiser votre mot de passe a été envoyé à l'adresse &lt;i&gt;&lt;b&gt;xx@xx.com&lt;/b&gt;&lt;/i&gt;" style="text;html=1;strokeColor=none;fillColor=none;align=center;verticalAlign=middle;whiteSpace=wrap;rounded=0;glass=0;fontSize=30;" parent="859" vertex="1">
                    <mxGeometry x="410" y="-107" width="720" height="74" as="geometry"/>
                </mxCell>
                <mxCell id="481" value="" style="endArrow=classic;html=1;fontFamily=Verdana;fontSize=36;exitX=0.5;exitY=1;exitDx=0;exitDy=0;strokeWidth=5;" parent="1" source="454" target="456" edge="1">
                    <mxGeometry width="50" height="50" relative="1" as="geometry">
                        <mxPoint x="1880" y="620" as="sourcePoint"/>
                        <mxPoint x="1930" y="570" as="targetPoint"/>
                    </mxGeometry>
                </mxCell>
                <mxCell id="865" style="edgeStyle=none;html=1;exitX=0.5;exitY=1;exitDx=0;exitDy=0;fontSize=30;strokeWidth=5;" parent="1" source="863" target="680" edge="1">
                    <mxGeometry relative="1" as="geometry"/>
                </mxCell>
                <mxCell id="874" value="" style="group" parent="1" vertex="1" connectable="0">
                    <mxGeometry x="160" y="1616.25" width="374.99999999999994" height="708.75" as="geometry"/>
                </mxCell>
                <mxCell id="875" value="" style="rounded=0;whiteSpace=wrap;html=1;fontFamily=Verdana;fontSize=36;container=0;" parent="874" vertex="1">
                    <mxGeometry width="374.99999999999994" height="708.75" as="geometry"/>
                </mxCell>
                <mxCell id="876" value="Tableau de bord" style="text;html=1;strokeColor=none;fillColor=none;align=left;verticalAlign=middle;whiteSpace=wrap;rounded=0;fontSize=30;container=0;" parent="874" vertex="1">
                    <mxGeometry x="30" y="47.5" width="222.5" height="30" as="geometry"/>
                </mxCell>
                <mxCell id="877" value="Base de donées" style="text;html=1;strokeColor=none;fillColor=none;align=left;verticalAlign=middle;whiteSpace=wrap;rounded=0;fontSize=30;container=0;" parent="874" vertex="1">
                    <mxGeometry x="30" y="100" width="222.5" height="30" as="geometry"/>
                </mxCell>
                <mxCell id="878" value="Chiffrage" style="text;html=1;strokeColor=none;fillColor=none;align=left;verticalAlign=middle;whiteSpace=wrap;rounded=0;fontSize=30;container=0;" parent="874" vertex="1">
                    <mxGeometry x="30" y="150" width="222.5" height="30" as="geometry"/>
                </mxCell>
                <mxCell id="879" value="Gestion du profil" style="text;html=1;strokeColor=none;fillColor=none;align=left;verticalAlign=middle;whiteSpace=wrap;rounded=0;fontSize=30;container=0;" parent="874" vertex="1">
                    <mxGeometry x="30" y="558" width="222.5" height="30" as="geometry"/>
                </mxCell>
                <mxCell id="880" value="Administration" style="text;html=1;strokeColor=none;fillColor=none;align=left;verticalAlign=middle;whiteSpace=wrap;rounded=0;fontSize=30;container=0;" parent="874" vertex="1">
                    <mxGeometry x="30" y="603" width="222.5" height="30" as="geometry"/>
                </mxCell>
                <mxCell id="764" value="Footer copyright FinDev&amp;nbsp;" style="rounded=0;whiteSpace=wrap;html=1;fontSize=20;" parent="1" vertex="1">
                    <mxGeometry x="160" y="2265" width="1600" height="60" as="geometry"/>
                </mxCell>
                <mxCell id="884" value="" style="group;fontSize=13;" parent="1" vertex="1" connectable="0">
                    <mxGeometry x="-1760" y="2475" width="1600" height="1050" as="geometry"/>
                </mxCell>
                <mxCell id="885" value="" style="strokeWidth=1;shadow=0;dashed=0;align=center;html=1;shape=mxgraph.mockup.containers.browserWindow;rSize=0;strokeColor=#666666;strokeColor2=#008cff;strokeColor3=#c4c4c4;mainText=,;recursiveResize=0;container=0;" parent="884" vertex="1">
                    <mxGeometry width="1599.9999999999998" height="1050" as="geometry"/>
                </mxCell>
                <mxCell id="886" value="Page 1" style="strokeWidth=1;shadow=0;dashed=0;align=center;html=1;shape=mxgraph.mockup.containers.anchor;fontSize=17;fontColor=#666666;align=left;container=0;" parent="884" vertex="1">
                    <mxGeometry x="49.99999999999999" y="10.500000000000002" width="91.66666666666664" height="22.75" as="geometry"/>
                </mxCell>
                <mxCell id="887" value="https://www.draw.io" style="strokeWidth=1;shadow=0;dashed=0;align=center;html=1;shape=mxgraph.mockup.containers.anchor;rSize=0;fontSize=17;fontColor=#666666;align=left;container=0;" parent="884" vertex="1">
                    <mxGeometry x="108.33333333333331" y="52.5" width="208.3333333333333" height="22.75" as="geometry"/>
                </mxCell>
                <mxCell id="888" value="" style="rounded=0;whiteSpace=wrap;html=1;fontFamily=Verdana;fontSize=30;container=0;" parent="884" vertex="1">
                    <mxGeometry y="96.25" width="1599.9999999999998" height="105" as="geometry"/>
                </mxCell>
                <mxCell id="889" value="" style="rounded=0;whiteSpace=wrap;html=1;fontFamily=Verdana;fontSize=30;container=0;" parent="884" vertex="1">
                    <mxGeometry y="96.25" width="374.99999999999994" height="105" as="geometry"/>
                </mxCell>
                <mxCell id="890" value="" style="rounded=0;whiteSpace=wrap;html=1;fontFamily=Verdana;fontSize=30;container=0;" parent="884" vertex="1">
                    <mxGeometry y="201.25000000000003" width="374.99999999999994" height="140" as="geometry"/>
                </mxCell>
                <mxCell id="892" value="John Doe&lt;br style=&quot;font-size: 25px&quot;&gt;&lt;i&gt;&lt;font style=&quot;font-weight: normal ; font-size: 18px&quot;&gt;Contrôleur de Gestion&lt;/font&gt;&lt;/i&gt;" style="text;html=1;strokeColor=none;fillColor=none;align=left;verticalAlign=middle;whiteSpace=wrap;rounded=0;fontFamily=Verdana;fontSize=25;container=0;fontStyle=1" parent="884" vertex="1">
                    <mxGeometry x="125" y="234.06" width="240" height="74.38" as="geometry"/>
                </mxCell>
                <mxCell id="893" value="ICONES" style="rounded=0;whiteSpace=wrap;html=1;fontFamily=Verdana;fontSize=36;container=0;" parent="884" vertex="1">
                    <mxGeometry x="1233.333333333333" y="122.50000000000001" width="341.6666666666666" height="52.5" as="geometry"/>
                </mxCell>
                <mxCell id="894" value="LOGO" style="rounded=0;whiteSpace=wrap;html=1;fontFamily=Verdana;fontSize=36;container=0;" parent="884" vertex="1">
                    <mxGeometry x="108.33333333333331" y="122.50000000000001" width="158.3333333333333" height="52.5" as="geometry"/>
                </mxCell>
                <mxCell id="895" value="Profil" style="rounded=0;whiteSpace=wrap;html=1;fontFamily=Verdana;fontSize=36;container=0;" parent="884" vertex="1">
                    <mxGeometry x="433.33" y="122.5" width="366.67" height="52.5" as="geometry"/>
                </mxCell>
                <mxCell id="896" value="" style="ellipse;whiteSpace=wrap;html=1;aspect=fixed;fontSize=30;" parent="884" vertex="1">
                    <mxGeometry x="345" y="237.31" width="61.87" height="61.87" as="geometry"/>
                </mxCell>
                <mxCell id="897" value="" style="triangle;whiteSpace=wrap;html=1;fontSize=18;" parent="884" vertex="1">
                    <mxGeometry x="365.44" y="250.25" width="27" height="36" as="geometry"/>
                </mxCell>
                <mxCell id="902" value="" style="group" parent="884" vertex="1" connectable="0">
                    <mxGeometry y="341.25" width="374.99999999999994" height="708.75" as="geometry"/>
                </mxCell>
                <mxCell id="903" value="" style="rounded=0;whiteSpace=wrap;html=1;fontFamily=Verdana;fontSize=36;container=0;" parent="902" vertex="1">
                    <mxGeometry width="374.99999999999994" height="708.75" as="geometry"/>
                </mxCell>
                <mxCell id="904" value="Tableau de bord" style="text;html=1;strokeColor=none;fillColor=none;align=left;verticalAlign=middle;whiteSpace=wrap;rounded=0;fontSize=30;container=0;" parent="902" vertex="1">
                    <mxGeometry x="30" y="47.5" width="222.5" height="30" as="geometry"/>
                </mxCell>
                <mxCell id="905" value="Base de donées" style="text;html=1;strokeColor=none;fillColor=none;align=left;verticalAlign=middle;whiteSpace=wrap;rounded=0;fontSize=30;container=0;" parent="902" vertex="1">
                    <mxGeometry x="30" y="100" width="222.5" height="30" as="geometry"/>
                </mxCell>
                <mxCell id="906" value="Chiffrage" style="text;html=1;strokeColor=none;fillColor=none;align=left;verticalAlign=middle;whiteSpace=wrap;rounded=0;fontSize=30;container=0;" parent="902" vertex="1">
                    <mxGeometry x="30" y="150" width="222.5" height="30" as="geometry"/>
                </mxCell>
                <mxCell id="907" value="Gestion du profil" style="text;html=1;strokeColor=none;fillColor=none;align=left;verticalAlign=middle;whiteSpace=wrap;rounded=0;fontSize=30;container=0;" parent="902" vertex="1">
                    <mxGeometry x="30" y="558" width="222.5" height="30" as="geometry"/>
                </mxCell>
                <mxCell id="908" value="Administration" style="text;html=1;strokeColor=none;fillColor=none;align=left;verticalAlign=middle;whiteSpace=wrap;rounded=0;fontSize=30;container=0;" parent="902" vertex="1">
                    <mxGeometry x="30" y="603" width="222.5" height="30" as="geometry"/>
                </mxCell>
                <mxCell id="901" value="Footer copyright FinDev&amp;nbsp;" style="rounded=0;whiteSpace=wrap;html=1;fontSize=20;" parent="884" vertex="1">
                    <mxGeometry y="990" width="1600" height="60" as="geometry"/>
                </mxCell>
                <mxCell id="917" value="" style="group" parent="884" vertex="1" connectable="0">
                    <mxGeometry x="467.00333333333333" y="619" width="333.33333333333337" height="52.5" as="geometry"/>
                </mxCell>
                <mxCell id="909" value="Compte" style="rounded=0;whiteSpace=wrap;html=1;fontFamily=Verdana;fontSize=20;container=0;" parent="917" vertex="1">
                    <mxGeometry width="333.33333333333337" height="52.5" as="geometry"/>
                </mxCell>
                <mxCell id="910" value="" style="rounded=0;whiteSpace=wrap;html=1;fontFamily=Verdana;fontSize=12;container=0;" parent="917" vertex="1">
                    <mxGeometry width="50" height="52.5" as="geometry"/>
                </mxCell>
                <mxCell id="911" value="&lt;font style=&quot;font-size: 37px&quot;&gt;&amp;gt;&lt;/font&gt;" style="rounded=0;whiteSpace=wrap;html=1;fontFamily=Verdana;fontSize=12;container=0;" parent="917" vertex="1">
                    <mxGeometry x="283" width="50" height="52.5" as="geometry"/>
                </mxCell>
                <mxCell id="938" value="" style="shape=actor;whiteSpace=wrap;html=1;rounded=0;glass=0;fontSize=10;fillColor=default;gradientColor=none;" parent="917" vertex="1">
                    <mxGeometry x="9.99666666666667" y="8.25" width="30" height="36" as="geometry"/>
                </mxCell>
                <mxCell id="930" value="" style="group" parent="884" vertex="1" connectable="0">
                    <mxGeometry x="14.58" y="224.38" width="93.75" height="93.75" as="geometry"/>
                </mxCell>
                <mxCell id="891" value="" style="ellipse;whiteSpace=wrap;html=1;aspect=fixed;fontFamily=Verdana;fontSize=30;container=0;" parent="930" vertex="1">
                    <mxGeometry width="93.75" height="93.75" as="geometry"/>
                </mxCell>
                <mxCell id="900" value="" style="sketch=0;outlineConnect=0;fillColor=#eeeeee;strokeColor=#36393d;dashed=0;verticalLabelPosition=bottom;verticalAlign=top;align=center;html=1;fontSize=12;fontStyle=0;aspect=fixed;pointerEvents=1;shape=mxgraph.aws4.user;" parent="930" vertex="1">
                    <mxGeometry x="15.880000000000008" y="15.870000000000005" width="62" height="62" as="geometry"/>
                </mxCell>
                <mxCell id="934" value="John Doe" style="text;html=1;strokeColor=none;fillColor=none;align=center;verticalAlign=middle;whiteSpace=wrap;rounded=0;fontFamily=Verdana;fontSize=25;container=0;fontStyle=1" parent="884" vertex="1">
                    <mxGeometry x="563.67" y="525" width="140" height="35" as="geometry"/>
                </mxCell>
                <mxCell id="935" value="Changer l'image de profile" style="text;html=1;strokeColor=none;fillColor=none;align=center;verticalAlign=middle;whiteSpace=wrap;rounded=0;glass=0;fontSize=12;fontStyle=2" parent="884" vertex="1">
                    <mxGeometry x="555.5" y="560" width="156.33" height="20" as="geometry"/>
                </mxCell>
                <mxCell id="931" value="" style="group" parent="884" vertex="1" connectable="0">
                    <mxGeometry x="563.6700000000001" y="357.31" width="140.54" height="140.54" as="geometry"/>
                </mxCell>
                <mxCell id="932" value="" style="ellipse;whiteSpace=wrap;html=1;aspect=fixed;fontFamily=Verdana;fontSize=30;container=0;" parent="931" vertex="1">
                    <mxGeometry width="140.54" height="140.54" as="geometry"/>
                </mxCell>
                <mxCell id="933" value="" style="sketch=0;outlineConnect=0;dashed=0;verticalLabelPosition=bottom;verticalAlign=top;align=center;html=1;fontSize=12;fontStyle=0;aspect=fixed;pointerEvents=1;shape=mxgraph.aws4.user;fillColor=#eeeeee;strokeColor=#36393d;" parent="931" vertex="1">
                    <mxGeometry x="23.80560213333334" y="23.790611200000004" width="92.94378666666665" height="92.94378666666665" as="geometry"/>
                </mxCell>
                <mxCell id="918" value="" style="group;fontSize=14;fontStyle=1" parent="1" vertex="1" connectable="0">
                    <mxGeometry x="-1292.9966666666667" y="3155.5" width="333.33333333333337" height="52.5" as="geometry"/>
                </mxCell>
                <mxCell id="919" value="&lt;font style=&quot;font-size: 18px&quot;&gt;&lt;b&gt;Changer le mot passe&lt;/b&gt;&lt;/font&gt;" style="rounded=0;whiteSpace=wrap;html=1;fontFamily=Verdana;fontSize=20;container=0;" parent="918" vertex="1">
                    <mxGeometry width="333.33333333333337" height="52.5" as="geometry"/>
                </mxCell>
                <mxCell id="920" value="" style="rounded=0;whiteSpace=wrap;html=1;fontFamily=Verdana;fontSize=12;container=0;" parent="918" vertex="1">
                    <mxGeometry width="50" height="52.5" as="geometry"/>
                </mxCell>
                <mxCell id="921" value="&lt;font style=&quot;font-size: 37px&quot;&gt;&lt;b&gt;&amp;gt;&lt;/b&gt;&lt;/font&gt;" style="rounded=0;whiteSpace=wrap;html=1;fontFamily=Verdana;fontSize=12;container=0;" parent="918" vertex="1">
                    <mxGeometry x="283" width="50" height="52.5" as="geometry"/>
                </mxCell>
                <mxCell id="939" value="" style="sketch=0;pointerEvents=1;shadow=0;dashed=0;html=1;strokeColor=none;labelPosition=center;verticalLabelPosition=bottom;verticalAlign=top;outlineConnect=0;align=center;shape=mxgraph.office.security.lock_protected;fillColor=#CCCBCB;rounded=0;glass=0;fontSize=10;" parent="918" vertex="1">
                    <mxGeometry x="13.67666666666662" y="10.75" width="22.65" height="31" as="geometry"/>
                </mxCell>
                <mxCell id="922" value="" style="group" parent="1" vertex="1" connectable="0">
                    <mxGeometry x="-1292.9966666666667" y="3218" width="333.33333333333337" height="52.5" as="geometry"/>
                </mxCell>
                <mxCell id="923" value="Notifications" style="rounded=0;whiteSpace=wrap;html=1;fontFamily=Verdana;fontSize=20;container=0;" parent="922" vertex="1">
                    <mxGeometry width="333.33333333333337" height="52.5" as="geometry"/>
                </mxCell>
                <mxCell id="924" value="" style="rounded=0;whiteSpace=wrap;html=1;fontFamily=Verdana;fontSize=12;container=0;" parent="922" vertex="1">
                    <mxGeometry width="50" height="52.5" as="geometry"/>
                </mxCell>
                <mxCell id="925" value="&lt;font style=&quot;font-size: 37px&quot;&gt;&amp;gt;&lt;/font&gt;" style="rounded=0;whiteSpace=wrap;html=1;fontFamily=Verdana;fontSize=12;container=0;" parent="922" vertex="1">
                    <mxGeometry x="283" width="50" height="52.5" as="geometry"/>
                </mxCell>
                <mxCell id="940" value="" style="shadow=0;dashed=0;html=1;strokeColor=#36393d;fillColor=#eeeeee;labelPosition=center;verticalLabelPosition=bottom;verticalAlign=top;align=center;outlineConnect=0;shape=mxgraph.veeam.2d.letter;rounded=0;glass=0;fontSize=10;" parent="922" vertex="1">
                    <mxGeometry x="11.666666666666742" y="16.25" width="26.67" height="20" as="geometry"/>
                </mxCell>
                <mxCell id="936" style="edgeStyle=none;html=1;exitX=0;exitY=0.5;exitDx=0;exitDy=0;fontSize=10;strokeWidth=5;" parent="1" source="879" target="885" edge="1">
                    <mxGeometry relative="1" as="geometry"/>
                </mxCell>
                <mxCell id="941" value="" style="rounded=1;whiteSpace=wrap;html=1;glass=0;fontSize=10;fillColor=default;gradientColor=none;" parent="1" vertex="1">
                    <mxGeometry x="-880" y="2750" width="610" height="650" as="geometry"/>
                </mxCell>
                <mxCell id="942" value="Changer le mot de passe" style="text;html=1;strokeColor=none;fillColor=none;align=left;verticalAlign=middle;whiteSpace=wrap;rounded=0;glass=0;fontSize=25;fontStyle=1" parent="1" vertex="1">
                    <mxGeometry x="-790" y="2830" width="300" height="30" as="geometry"/>
                </mxCell>
                <mxCell id="943" value="" style="sketch=0;pointerEvents=1;shadow=0;dashed=0;html=1;strokeColor=none;labelPosition=center;verticalLabelPosition=bottom;verticalAlign=top;outlineConnect=0;align=center;shape=mxgraph.office.security.lock_protected;fillColor=#CCCBCB;rounded=0;glass=0;fontSize=10;" parent="1" vertex="1">
                    <mxGeometry x="-830.0000000000002" y="2829" width="22.65" height="31" as="geometry"/>
                </mxCell>
                <mxCell id="946" value="" style="group" parent="1" vertex="1" connectable="0">
                    <mxGeometry x="-850" y="2920" width="540" height="90" as="geometry"/>
                </mxCell>
                <mxCell id="944" value="Mot de passe actuel" style="text;html=1;strokeColor=none;fillColor=none;align=center;verticalAlign=middle;whiteSpace=wrap;rounded=0;glass=0;fontSize=25;" parent="946" vertex="1">
                    <mxGeometry width="250" height="30" as="geometry"/>
                </mxCell>
                <mxCell id="945" value="" style="rounded=0;whiteSpace=wrap;html=1;glass=0;fontSize=25;fillColor=default;gradientColor=none;" parent="946" vertex="1">
                    <mxGeometry x="10" y="50" width="530" height="40" as="geometry"/>
                </mxCell>
                <mxCell id="947" value="" style="group" parent="1" vertex="1" connectable="0">
                    <mxGeometry x="-850" y="3030" width="540" height="90" as="geometry"/>
                </mxCell>
                <mxCell id="948" value="Nouveau mot de passe" style="text;html=1;strokeColor=none;fillColor=none;align=center;verticalAlign=middle;whiteSpace=wrap;rounded=0;glass=0;fontSize=25;" parent="947" vertex="1">
                    <mxGeometry width="280" height="30" as="geometry"/>
                </mxCell>
                <mxCell id="949" value="" style="rounded=0;whiteSpace=wrap;html=1;glass=0;fontSize=25;fillColor=default;gradientColor=none;" parent="947" vertex="1">
                    <mxGeometry x="10" y="50" width="530" height="40" as="geometry"/>
                </mxCell>
                <mxCell id="950" value="" style="group" parent="1" vertex="1" connectable="0">
                    <mxGeometry x="-850" y="3140" width="540" height="90" as="geometry"/>
                </mxCell>
                <mxCell id="951" value="Confirmer le mot de passe" style="text;html=1;strokeColor=none;fillColor=none;align=center;verticalAlign=middle;whiteSpace=wrap;rounded=0;glass=0;fontSize=25;" parent="950" vertex="1">
                    <mxGeometry width="300" height="30" as="geometry"/>
                </mxCell>
                <mxCell id="952" value="" style="rounded=0;whiteSpace=wrap;html=1;glass=0;fontSize=25;fillColor=default;gradientColor=none;" parent="950" vertex="1">
                    <mxGeometry x="10" y="50" width="530" height="40" as="geometry"/>
                </mxCell>
                <mxCell id="953" value="Mettre à jour" style="rounded=1;whiteSpace=wrap;html=1;glass=0;fontSize=25;fillColor=default;gradientColor=none;" parent="1" vertex="1">
                    <mxGeometry x="-840" y="3260" width="230" height="60" as="geometry"/>
                </mxCell>
                <mxCell id="456" value="" style="strokeWidth=1;shadow=0;dashed=0;align=center;html=1;shape=mxgraph.mockup.containers.browserWindow;rSize=0;strokeColor=#666666;strokeColor2=#008cff;strokeColor3=#c4c4c4;mainText=,;recursiveResize=0;container=0;" parent="1" vertex="1">
                    <mxGeometry x="160" y="75" width="1599.9999999999998" height="1050" as="geometry"/>
                </mxCell>
                <mxCell id="457" value="Page 1" style="strokeWidth=1;shadow=0;dashed=0;align=center;html=1;shape=mxgraph.mockup.containers.anchor;fontSize=17;fontColor=#666666;align=left;container=0;" parent="1" vertex="1">
                    <mxGeometry x="210" y="85.5" width="91.66666666666664" height="22.75" as="geometry"/>
                </mxCell>
                <mxCell id="458" value="https://www.draw.io" style="strokeWidth=1;shadow=0;dashed=0;align=center;html=1;shape=mxgraph.mockup.containers.anchor;rSize=0;fontSize=17;fontColor=#666666;align=left;container=0;" parent="1" vertex="1">
                    <mxGeometry x="268.3333333333333" y="127.5" width="208.3333333333333" height="22.75" as="geometry"/>
                </mxCell>
                <mxCell id="465" value="" style="rounded=0;whiteSpace=wrap;html=1;fontFamily=Verdana;fontSize=30;container=0;" parent="1" vertex="1">
                    <mxGeometry x="160" y="171.25" width="1599.9999999999998" height="105" as="geometry"/>
                </mxCell>
                <mxCell id="466" value="" style="rounded=0;whiteSpace=wrap;html=1;fontFamily=Verdana;fontSize=30;container=0;" parent="1" vertex="1">
                    <mxGeometry x="160" y="171.25" width="374.99999999999994" height="105" as="geometry"/>
                </mxCell>
                <mxCell id="472" value="" style="rounded=0;whiteSpace=wrap;html=1;fontFamily=Verdana;fontSize=30;container=0;" parent="1" vertex="1">
                    <mxGeometry x="160" y="276.25" width="374.99999999999994" height="140" as="geometry"/>
                </mxCell>
                <mxCell id="468" value="" style="ellipse;whiteSpace=wrap;html=1;aspect=fixed;fontFamily=Verdana;fontSize=30;container=0;" parent="1" vertex="1">
                    <mxGeometry x="174.58" y="299.38" width="93.75" height="93.75" as="geometry"/>
                </mxCell>
                <mxCell id="469" value="John Doe&lt;br style=&quot;font-size: 25px&quot;&gt;&lt;i&gt;&lt;font style=&quot;font-weight: normal ; font-size: 18px&quot;&gt;Contrôleur de Gestion&lt;/font&gt;&lt;/i&gt;" style="text;html=1;strokeColor=none;fillColor=none;align=left;verticalAlign=middle;whiteSpace=wrap;rounded=0;fontFamily=Verdana;fontSize=25;container=0;fontStyle=1" parent="1" vertex="1">
                    <mxGeometry x="285" y="309.05999999999995" width="240" height="74.38" as="geometry"/>
                </mxCell>
                <mxCell id="475" value="ICONES" style="rounded=0;whiteSpace=wrap;html=1;fontFamily=Verdana;fontSize=36;container=0;" parent="1" vertex="1">
                    <mxGeometry x="1393.333333333333" y="197.5" width="341.6666666666666" height="52.5" as="geometry"/>
                </mxCell>
                <mxCell id="476" value="LOGO" style="rounded=0;whiteSpace=wrap;html=1;fontFamily=Verdana;fontSize=36;container=0;" parent="1" vertex="1">
                    <mxGeometry x="268.3333333333333" y="197.5" width="158.3333333333333" height="52.5" as="geometry"/>
                </mxCell>
                <mxCell id="477" value="TABLEAU DE BORD" style="rounded=0;whiteSpace=wrap;html=1;fontFamily=Verdana;fontSize=36;container=0;" parent="1" vertex="1">
                    <mxGeometry x="593.3299999999999" y="197.5" width="366.67" height="52.5" as="geometry"/>
                </mxCell>
                <mxCell id="513" value="" style="group" parent="1" vertex="1" connectable="0">
                    <mxGeometry x="993" y="300" width="300" height="193.75" as="geometry"/>
                </mxCell>
                <mxCell id="514" value="" style="rounded=0;whiteSpace=wrap;html=1;fontSize=20;" parent="513" vertex="1">
                    <mxGeometry width="300" height="150" as="geometry"/>
                </mxCell>
                <mxCell id="515" value="" style="verticalLabelPosition=bottom;shadow=0;dashed=0;align=center;html=1;verticalAlign=top;strokeWidth=1;shape=mxgraph.mockup.graphics.simpleIcon;strokeColor=#999999;fontSize=20;" parent="513" vertex="1">
                    <mxGeometry x="200" y="33.75" width="80" height="80" as="geometry"/>
                </mxCell>
                <mxCell id="516" value="Chiffre d'affaires" style="text;html=1;strokeColor=none;fillColor=none;align=left;verticalAlign=middle;whiteSpace=wrap;rounded=0;fontSize=23;" parent="513" vertex="1">
                    <mxGeometry x="15" y="83.75" width="175" height="30" as="geometry"/>
                </mxCell>
                <mxCell id="517" value="" style="rounded=0;whiteSpace=wrap;html=1;fontSize=20;" parent="513" vertex="1">
                    <mxGeometry y="150" width="300" height="43.75" as="geometry"/>
                </mxCell>
                <mxCell id="518" value="Plus de détails" style="text;html=1;strokeColor=none;fillColor=none;align=left;verticalAlign=middle;whiteSpace=wrap;rounded=0;fontSize=20;fontStyle=2" parent="513" vertex="1">
                    <mxGeometry x="10" y="158.75" width="160" height="30" as="geometry"/>
                </mxCell>
                <mxCell id="519" value="150.000 K" style="text;html=1;strokeColor=none;fillColor=none;align=left;verticalAlign=middle;whiteSpace=wrap;rounded=0;fontSize=30;fontStyle=1" parent="513" vertex="1">
                    <mxGeometry x="15" y="33.75" width="150" height="30" as="geometry"/>
                </mxCell>
                <mxCell id="511" value="" style="group" parent="1" vertex="1" connectable="0">
                    <mxGeometry x="620" y="300" width="300" height="220" as="geometry"/>
                </mxCell>
                <mxCell id="501" value="" style="rounded=0;whiteSpace=wrap;html=1;fontSize=20;" parent="511" vertex="1">
                    <mxGeometry width="300" height="150" as="geometry"/>
                </mxCell>
                <mxCell id="504" value="" style="verticalLabelPosition=bottom;shadow=0;dashed=0;align=center;html=1;verticalAlign=top;strokeWidth=1;shape=mxgraph.mockup.graphics.simpleIcon;strokeColor=#999999;fontSize=20;" parent="511" vertex="1">
                    <mxGeometry x="198" y="33.75" width="80" height="80" as="geometry"/>
                </mxCell>
                <mxCell id="507" value="LOREM" style="text;html=1;strokeColor=none;fillColor=none;align=left;verticalAlign=middle;whiteSpace=wrap;rounded=0;fontSize=30;" parent="511" vertex="1">
                    <mxGeometry x="15" y="83.75" width="120" height="30" as="geometry"/>
                </mxCell>
                <mxCell id="509" value="" style="rounded=0;whiteSpace=wrap;html=1;fontSize=20;" parent="511" vertex="1">
                    <mxGeometry y="150" width="300" height="43.75" as="geometry"/>
                </mxCell>
                <mxCell id="508" value="Plus de détails" style="text;html=1;strokeColor=none;fillColor=none;align=left;verticalAlign=middle;whiteSpace=wrap;rounded=0;fontSize=20;fontStyle=2" parent="511" vertex="1">
                    <mxGeometry x="10" y="158.75" width="160" height="30" as="geometry"/>
                </mxCell>
                <mxCell id="510" value="150.000 K" style="text;html=1;strokeColor=none;fillColor=none;align=left;verticalAlign=middle;whiteSpace=wrap;rounded=0;fontSize=30;fontStyle=1" parent="511" vertex="1">
                    <mxGeometry x="15" y="33.75" width="150" height="30" as="geometry"/>
                </mxCell>
                <mxCell id="529" value="" style="ellipse;whiteSpace=wrap;html=1;aspect=fixed;fontSize=30;" parent="1" vertex="1">
                    <mxGeometry x="505" y="312.30999999999995" width="61.87" height="61.87" as="geometry"/>
                </mxCell>
                <mxCell id="533" value="" style="triangle;whiteSpace=wrap;html=1;fontSize=18;" parent="1" vertex="1">
                    <mxGeometry x="525.44" y="325.25" width="27" height="36" as="geometry"/>
                </mxCell>
                <mxCell id="599" value="Cross-Functional Flowchart" style="shape=table;childLayout=tableLayout;startSize=40;collapsible=0;recursiveResize=0;expand=0;pointerEvents=0;fontSize=23;" parent="1" vertex="1">
                    <mxGeometry x="552.44" y="810" width="1177.56" height="300" as="geometry"/>
                </mxCell>
                <mxCell id="600" value="" style="swimlane;horizontal=0;fontStyle=0;points=[[0,0.5],[1,0.5]];fillColor=none;strokeColor=none;portConstraint=eastwest;startSize=40;collapsible=0;recursiveResize=0;expand=0;pointerEvents=0;fontSize=23;" parent="599" vertex="1">
                    <mxGeometry y="40" width="1177.56" height="52" as="geometry"/>
                </mxCell>
                <mxCell id="601" value="" style="swimlane;fontStyle=0;connectable=0;fillColor=none;startSize=25;collapsible=0;recursiveResize=0;expand=0;pointerEvents=0;fontSize=23;" parent="600" vertex="1">
                    <mxGeometry x="40" width="114" height="52" as="geometry">
                        <mxRectangle width="114" height="52" as="alternateBounds"/>
                    </mxGeometry>
                </mxCell>
                <mxCell id="602" value="" style="swimlane;fontStyle=0;connectable=0;fillColor=none;startSize=25;collapsible=0;recursiveResize=0;expand=0;pointerEvents=0;fontSize=23;" parent="600" vertex="1">
                    <mxGeometry x="154" width="114" height="52" as="geometry">
                        <mxRectangle width="114" height="52" as="alternateBounds"/>
                    </mxGeometry>
                </mxCell>
                <mxCell id="603" value="" style="swimlane;fontStyle=0;connectable=0;fillColor=none;startSize=25;collapsible=0;recursiveResize=0;expand=0;pointerEvents=0;fontSize=23;" parent="600" vertex="1">
                    <mxGeometry x="268" width="113" height="52" as="geometry">
                        <mxRectangle width="113" height="52" as="alternateBounds"/>
                    </mxGeometry>
                </mxCell>
                <mxCell id="604" value="" style="swimlane;fontStyle=0;connectable=0;fillColor=none;startSize=25;collapsible=0;recursiveResize=0;expand=0;pointerEvents=0;fontSize=23;" parent="600" vertex="1">
                    <mxGeometry x="381" width="114" height="52" as="geometry">
                        <mxRectangle width="114" height="52" as="alternateBounds"/>
                    </mxGeometry>
                </mxCell>
                <mxCell id="605" value="" style="swimlane;fontStyle=0;connectable=0;fillColor=none;startSize=25;collapsible=0;recursiveResize=0;expand=0;pointerEvents=0;fontSize=23;" parent="600" vertex="1">
                    <mxGeometry x="495" width="114" height="52" as="geometry">
                        <mxRectangle width="114" height="52" as="alternateBounds"/>
                    </mxGeometry>
                </mxCell>
                <mxCell id="606" value="" style="swimlane;fontStyle=0;connectable=0;fillColor=none;startSize=25;collapsible=0;recursiveResize=0;expand=0;pointerEvents=0;fontSize=23;" parent="600" vertex="1">
                    <mxGeometry x="609" width="114" height="52" as="geometry">
                        <mxRectangle width="114" height="52" as="alternateBounds"/>
                    </mxGeometry>
                </mxCell>
                <mxCell id="607" value="" style="swimlane;fontStyle=0;connectable=0;fillColor=none;startSize=25;collapsible=0;recursiveResize=0;expand=0;pointerEvents=0;fontSize=23;" parent="600" vertex="1">
                    <mxGeometry x="723" width="113" height="52" as="geometry">
                        <mxRectangle width="113" height="52" as="alternateBounds"/>
                    </mxGeometry>
                </mxCell>
                <mxCell id="608" value="" style="swimlane;fontStyle=0;connectable=0;fillColor=none;startSize=25;collapsible=0;recursiveResize=0;expand=0;pointerEvents=0;fontSize=23;" parent="600" vertex="1">
                    <mxGeometry x="836" width="114" height="52" as="geometry">
                        <mxRectangle width="114" height="52" as="alternateBounds"/>
                    </mxGeometry>
                </mxCell>
                <mxCell id="609" value="" style="swimlane;fontStyle=0;connectable=0;fillColor=none;startSize=25;collapsible=0;recursiveResize=0;expand=0;pointerEvents=0;fontSize=23;" parent="600" vertex="1">
                    <mxGeometry x="950" width="114" height="52" as="geometry">
                        <mxRectangle width="114" height="52" as="alternateBounds"/>
                    </mxGeometry>
                </mxCell>
                <mxCell id="610" value="" style="swimlane;fontStyle=0;connectable=0;fillColor=none;startSize=25;collapsible=0;recursiveResize=0;expand=0;pointerEvents=0;fontSize=23;" parent="600" vertex="1">
                    <mxGeometry x="1064" width="114" height="52" as="geometry">
                        <mxRectangle width="114" height="52" as="alternateBounds"/>
                    </mxGeometry>
                </mxCell>
                <mxCell id="611" value="" style="swimlane;horizontal=0;fontStyle=0;points=[[0,0.5],[1,0.5]];fillColor=none;strokeColor=none;portConstraint=eastwest;startSize=40;collapsible=0;recursiveResize=0;expand=0;pointerEvents=0;fontSize=23;" parent="599" vertex="1">
                    <mxGeometry y="92" width="1177.56" height="52" as="geometry"/>
                </mxCell>
                <mxCell id="612" value="" style="swimlane;fontStyle=0;connectable=0;fillColor=none;startSize=0;collapsible=0;recursiveResize=0;expand=0;pointerEvents=0;fontSize=23;" parent="611" vertex="1">
                    <mxGeometry x="40" width="114" height="52" as="geometry">
                        <mxRectangle width="114" height="52" as="alternateBounds"/>
                    </mxGeometry>
                </mxCell>
                <mxCell id="613" value="" style="swimlane;fontStyle=0;connectable=0;fillColor=none;startSize=0;collapsible=0;recursiveResize=0;expand=0;pointerEvents=0;fontSize=23;" parent="611" vertex="1">
                    <mxGeometry x="154" width="114" height="52" as="geometry">
                        <mxRectangle width="114" height="52" as="alternateBounds"/>
                    </mxGeometry>
                </mxCell>
                <mxCell id="614" value="" style="swimlane;fontStyle=0;connectable=0;fillColor=none;startSize=0;collapsible=0;recursiveResize=0;expand=0;pointerEvents=0;fontSize=23;" parent="611" vertex="1">
                    <mxGeometry x="268" width="113" height="52" as="geometry">
                        <mxRectangle width="113" height="52" as="alternateBounds"/>
                    </mxGeometry>
                </mxCell>
                <mxCell id="615" value="" style="swimlane;fontStyle=0;connectable=0;fillColor=none;startSize=0;collapsible=0;recursiveResize=0;expand=0;pointerEvents=0;fontSize=23;" parent="611" vertex="1">
                    <mxGeometry x="381" width="114" height="52" as="geometry">
                        <mxRectangle width="114" height="52" as="alternateBounds"/>
                    </mxGeometry>
                </mxCell>
                <mxCell id="616" value="" style="swimlane;fontStyle=0;connectable=0;fillColor=none;startSize=0;collapsible=0;recursiveResize=0;expand=0;pointerEvents=0;fontSize=23;" parent="611" vertex="1">
                    <mxGeometry x="495" width="114" height="52" as="geometry">
                        <mxRectangle width="114" height="52" as="alternateBounds"/>
                    </mxGeometry>
                </mxCell>
                <mxCell id="617" value="" style="swimlane;fontStyle=0;connectable=0;fillColor=none;startSize=0;collapsible=0;recursiveResize=0;expand=0;pointerEvents=0;fontSize=23;" parent="611" vertex="1">
                    <mxGeometry x="609" width="114" height="52" as="geometry">
                        <mxRectangle width="114" height="52" as="alternateBounds"/>
                    </mxGeometry>
                </mxCell>
                <mxCell id="618" value="" style="swimlane;fontStyle=0;connectable=0;fillColor=none;startSize=0;collapsible=0;recursiveResize=0;expand=0;pointerEvents=0;fontSize=23;" parent="611" vertex="1">
                    <mxGeometry x="723" width="113" height="52" as="geometry">
                        <mxRectangle width="113" height="52" as="alternateBounds"/>
                    </mxGeometry>
                </mxCell>
                <mxCell id="619" value="" style="swimlane;fontStyle=0;connectable=0;fillColor=none;startSize=0;collapsible=0;recursiveResize=0;expand=0;pointerEvents=0;fontSize=23;" parent="611" vertex="1">
                    <mxGeometry x="836" width="114" height="52" as="geometry">
                        <mxRectangle width="114" height="52" as="alternateBounds"/>
                    </mxGeometry>
                </mxCell>
                <mxCell id="620" value="" style="swimlane;fontStyle=0;connectable=0;fillColor=none;startSize=0;collapsible=0;recursiveResize=0;expand=0;pointerEvents=0;fontSize=23;" parent="611" vertex="1">
                    <mxGeometry x="950" width="114" height="52" as="geometry">
                        <mxRectangle width="114" height="52" as="alternateBounds"/>
                    </mxGeometry>
                </mxCell>
                <mxCell id="621" value="" style="swimlane;fontStyle=0;connectable=0;fillColor=none;startSize=0;collapsible=0;recursiveResize=0;expand=0;pointerEvents=0;fontSize=23;" parent="611" vertex="1">
                    <mxGeometry x="1064" width="114" height="52" as="geometry">
                        <mxRectangle width="114" height="52" as="alternateBounds"/>
                    </mxGeometry>
                </mxCell>
                <mxCell id="622" value="" style="swimlane;horizontal=0;fontStyle=0;points=[[0,0.5],[1,0.5]];fillColor=none;strokeColor=none;portConstraint=eastwest;startSize=40;collapsible=0;recursiveResize=0;expand=0;pointerEvents=0;fontSize=23;" parent="599" vertex="1">
                    <mxGeometry y="144" width="1177.56" height="52" as="geometry"/>
                </mxCell>
                <mxCell id="623" value="" style="swimlane;fontStyle=0;connectable=0;fillColor=none;startSize=0;collapsible=0;recursiveResize=0;expand=0;pointerEvents=0;fontSize=23;" parent="622" vertex="1">
                    <mxGeometry x="40" width="114" height="52" as="geometry">
                        <mxRectangle width="114" height="52" as="alternateBounds"/>
                    </mxGeometry>
                </mxCell>
                <mxCell id="624" value="" style="swimlane;fontStyle=0;connectable=0;fillColor=none;startSize=0;collapsible=0;recursiveResize=0;expand=0;pointerEvents=0;fontSize=23;" parent="622" vertex="1">
                    <mxGeometry x="154" width="114" height="52" as="geometry">
                        <mxRectangle width="114" height="52" as="alternateBounds"/>
                    </mxGeometry>
                </mxCell>
                <mxCell id="625" value="" style="swimlane;fontStyle=0;connectable=0;fillColor=none;startSize=0;collapsible=0;recursiveResize=0;expand=0;pointerEvents=0;fontSize=23;" parent="622" vertex="1">
                    <mxGeometry x="268" width="113" height="52" as="geometry">
                        <mxRectangle width="113" height="52" as="alternateBounds"/>
                    </mxGeometry>
                </mxCell>
                <mxCell id="626" value="" style="swimlane;fontStyle=0;connectable=0;fillColor=none;startSize=0;collapsible=0;recursiveResize=0;expand=0;pointerEvents=0;fontSize=23;" parent="622" vertex="1">
                    <mxGeometry x="381" width="114" height="52" as="geometry">
                        <mxRectangle width="114" height="52" as="alternateBounds"/>
                    </mxGeometry>
                </mxCell>
                <mxCell id="627" value="" style="swimlane;fontStyle=0;connectable=0;fillColor=none;startSize=0;collapsible=0;recursiveResize=0;expand=0;pointerEvents=0;fontSize=23;" parent="622" vertex="1">
                    <mxGeometry x="495" width="114" height="52" as="geometry">
                        <mxRectangle width="114" height="52" as="alternateBounds"/>
                    </mxGeometry>
                </mxCell>
                <mxCell id="628" value="" style="swimlane;fontStyle=0;connectable=0;fillColor=none;startSize=0;collapsible=0;recursiveResize=0;expand=0;pointerEvents=0;fontSize=23;" parent="622" vertex="1">
                    <mxGeometry x="609" width="114" height="52" as="geometry">
                        <mxRectangle width="114" height="52" as="alternateBounds"/>
                    </mxGeometry>
                </mxCell>
                <mxCell id="629" value="" style="swimlane;fontStyle=0;connectable=0;fillColor=none;startSize=0;collapsible=0;recursiveResize=0;expand=0;pointerEvents=0;fontSize=23;" parent="622" vertex="1">
                    <mxGeometry x="723" width="113" height="52" as="geometry">
                        <mxRectangle width="113" height="52" as="alternateBounds"/>
                    </mxGeometry>
                </mxCell>
                <mxCell id="630" value="" style="swimlane;fontStyle=0;connectable=0;fillColor=none;startSize=0;collapsible=0;recursiveResize=0;expand=0;pointerEvents=0;fontSize=23;" parent="622" vertex="1">
                    <mxGeometry x="836" width="114" height="52" as="geometry">
                        <mxRectangle width="114" height="52" as="alternateBounds"/>
                    </mxGeometry>
                </mxCell>
                <mxCell id="631" value="" style="swimlane;fontStyle=0;connectable=0;fillColor=none;startSize=0;collapsible=0;recursiveResize=0;expand=0;pointerEvents=0;fontSize=23;" parent="622" vertex="1">
                    <mxGeometry x="950" width="114" height="52" as="geometry">
                        <mxRectangle width="114" height="52" as="alternateBounds"/>
                    </mxGeometry>
                </mxCell>
                <mxCell id="632" value="" style="swimlane;fontStyle=0;connectable=0;fillColor=none;startSize=0;collapsible=0;recursiveResize=0;expand=0;pointerEvents=0;fontSize=23;" parent="622" vertex="1">
                    <mxGeometry x="1064" width="114" height="52" as="geometry">
                        <mxRectangle width="114" height="52" as="alternateBounds"/>
                    </mxGeometry>
                </mxCell>
                <mxCell id="633" value="" style="swimlane;horizontal=0;fontStyle=0;points=[[0,0.5],[1,0.5]];fillColor=none;strokeColor=none;portConstraint=eastwest;startSize=40;collapsible=0;recursiveResize=0;expand=0;pointerEvents=0;fontSize=23;" parent="599" vertex="1">
                    <mxGeometry y="196" width="1177.56" height="52" as="geometry"/>
                </mxCell>
                <mxCell id="634" value="" style="swimlane;fontStyle=0;connectable=0;fillColor=none;startSize=0;collapsible=0;recursiveResize=0;expand=0;pointerEvents=0;fontSize=23;" parent="633" vertex="1">
                    <mxGeometry x="40" width="114" height="52" as="geometry">
                        <mxRectangle width="114" height="52" as="alternateBounds"/>
                    </mxGeometry>
                </mxCell>
                <mxCell id="635" value="" style="swimlane;fontStyle=0;connectable=0;fillColor=none;startSize=0;collapsible=0;recursiveResize=0;expand=0;pointerEvents=0;fontSize=23;" parent="633" vertex="1">
                    <mxGeometry x="154" width="114" height="52" as="geometry">
                        <mxRectangle width="114" height="52" as="alternateBounds"/>
                    </mxGeometry>
                </mxCell>
                <mxCell id="636" value="" style="swimlane;fontStyle=0;connectable=0;fillColor=none;startSize=0;collapsible=0;recursiveResize=0;expand=0;pointerEvents=0;fontSize=23;" parent="633" vertex="1">
                    <mxGeometry x="268" width="113" height="52" as="geometry">
                        <mxRectangle width="113" height="52" as="alternateBounds"/>
                    </mxGeometry>
                </mxCell>
                <mxCell id="637" value="" style="swimlane;fontStyle=0;connectable=0;fillColor=none;startSize=0;collapsible=0;recursiveResize=0;expand=0;pointerEvents=0;fontSize=23;" parent="633" vertex="1">
                    <mxGeometry x="381" width="114" height="52" as="geometry">
                        <mxRectangle width="114" height="52" as="alternateBounds"/>
                    </mxGeometry>
                </mxCell>
                <mxCell id="638" value="" style="swimlane;fontStyle=0;connectable=0;fillColor=none;startSize=0;collapsible=0;recursiveResize=0;expand=0;pointerEvents=0;fontSize=23;" parent="633" vertex="1">
                    <mxGeometry x="495" width="114" height="52" as="geometry">
                        <mxRectangle width="114" height="52" as="alternateBounds"/>
                    </mxGeometry>
                </mxCell>
                <mxCell id="639" value="" style="swimlane;fontStyle=0;connectable=0;fillColor=none;startSize=0;collapsible=0;recursiveResize=0;expand=0;pointerEvents=0;fontSize=23;" parent="633" vertex="1">
                    <mxGeometry x="609" width="114" height="52" as="geometry">
                        <mxRectangle width="114" height="52" as="alternateBounds"/>
                    </mxGeometry>
                </mxCell>
                <mxCell id="640" value="" style="swimlane;fontStyle=0;connectable=0;fillColor=none;startSize=0;collapsible=0;recursiveResize=0;expand=0;pointerEvents=0;fontSize=23;" parent="633" vertex="1">
                    <mxGeometry x="723" width="113" height="52" as="geometry">
                        <mxRectangle width="113" height="52" as="alternateBounds"/>
                    </mxGeometry>
                </mxCell>
                <mxCell id="641" value="" style="swimlane;fontStyle=0;connectable=0;fillColor=none;startSize=0;collapsible=0;recursiveResize=0;expand=0;pointerEvents=0;fontSize=23;" parent="633" vertex="1">
                    <mxGeometry x="836" width="114" height="52" as="geometry">
                        <mxRectangle width="114" height="52" as="alternateBounds"/>
                    </mxGeometry>
                </mxCell>
                <mxCell id="642" value="" style="swimlane;fontStyle=0;connectable=0;fillColor=none;startSize=0;collapsible=0;recursiveResize=0;expand=0;pointerEvents=0;fontSize=23;" parent="633" vertex="1">
                    <mxGeometry x="950" width="114" height="52" as="geometry">
                        <mxRectangle width="114" height="52" as="alternateBounds"/>
                    </mxGeometry>
                </mxCell>
                <mxCell id="643" value="" style="swimlane;fontStyle=0;connectable=0;fillColor=none;startSize=0;collapsible=0;recursiveResize=0;expand=0;pointerEvents=0;fontSize=23;" parent="633" vertex="1">
                    <mxGeometry x="1064" width="114" height="52" as="geometry">
                        <mxRectangle width="114" height="52" as="alternateBounds"/>
                    </mxGeometry>
                </mxCell>
                <mxCell id="644" value="" style="swimlane;horizontal=0;fontStyle=0;points=[[0,0.5],[1,0.5]];fillColor=none;strokeColor=none;portConstraint=eastwest;startSize=40;collapsible=0;recursiveResize=0;expand=0;pointerEvents=0;fontSize=23;" parent="599" vertex="1">
                    <mxGeometry y="248" width="1177.56" height="52" as="geometry"/>
                </mxCell>
                <mxCell id="645" value="" style="swimlane;fontStyle=0;connectable=0;fillColor=none;startSize=0;collapsible=0;recursiveResize=0;expand=0;pointerEvents=0;fontSize=23;" parent="644" vertex="1">
                    <mxGeometry x="40" width="114" height="52" as="geometry">
                        <mxRectangle width="114" height="52" as="alternateBounds"/>
                    </mxGeometry>
                </mxCell>
                <mxCell id="646" value="" style="swimlane;fontStyle=0;connectable=0;fillColor=none;startSize=0;collapsible=0;recursiveResize=0;expand=0;pointerEvents=0;fontSize=23;" parent="644" vertex="1">
                    <mxGeometry x="154" width="114" height="52" as="geometry">
                        <mxRectangle width="114" height="52" as="alternateBounds"/>
                    </mxGeometry>
                </mxCell>
                <mxCell id="647" value="" style="swimlane;fontStyle=0;connectable=0;fillColor=none;startSize=0;collapsible=0;recursiveResize=0;expand=0;pointerEvents=0;fontSize=23;" parent="644" vertex="1">
                    <mxGeometry x="268" width="113" height="52" as="geometry">
                        <mxRectangle width="113" height="52" as="alternateBounds"/>
                    </mxGeometry>
                </mxCell>
                <mxCell id="648" value="" style="swimlane;fontStyle=0;connectable=0;fillColor=none;startSize=0;collapsible=0;recursiveResize=0;expand=0;pointerEvents=0;fontSize=23;" parent="644" vertex="1">
                    <mxGeometry x="381" width="114" height="52" as="geometry">
                        <mxRectangle width="114" height="52" as="alternateBounds"/>
                    </mxGeometry>
                </mxCell>
                <mxCell id="649" value="" style="swimlane;fontStyle=0;connectable=0;fillColor=none;startSize=0;collapsible=0;recursiveResize=0;expand=0;pointerEvents=0;fontSize=23;" parent="644" vertex="1">
                    <mxGeometry x="495" width="114" height="52" as="geometry">
                        <mxRectangle width="114" height="52" as="alternateBounds"/>
                    </mxGeometry>
                </mxCell>
                <mxCell id="650" value="" style="swimlane;fontStyle=0;connectable=0;fillColor=none;startSize=0;collapsible=0;recursiveResize=0;expand=0;pointerEvents=0;fontSize=23;" parent="644" vertex="1">
                    <mxGeometry x="609" width="114" height="52" as="geometry">
                        <mxRectangle width="114" height="52" as="alternateBounds"/>
                    </mxGeometry>
                </mxCell>
                <mxCell id="651" value="" style="swimlane;fontStyle=0;connectable=0;fillColor=none;startSize=0;collapsible=0;recursiveResize=0;expand=0;pointerEvents=0;fontSize=23;" parent="644" vertex="1">
                    <mxGeometry x="723" width="113" height="52" as="geometry">
                        <mxRectangle width="113" height="52" as="alternateBounds"/>
                    </mxGeometry>
                </mxCell>
                <mxCell id="652" value="" style="swimlane;fontStyle=0;connectable=0;fillColor=none;startSize=0;collapsible=0;recursiveResize=0;expand=0;pointerEvents=0;fontSize=23;" parent="644" vertex="1">
                    <mxGeometry x="836" width="114" height="52" as="geometry">
                        <mxRectangle width="114" height="52" as="alternateBounds"/>
                    </mxGeometry>
                </mxCell>
                <mxCell id="653" value="" style="swimlane;fontStyle=0;connectable=0;fillColor=none;startSize=0;collapsible=0;recursiveResize=0;expand=0;pointerEvents=0;fontSize=23;" parent="644" vertex="1">
                    <mxGeometry x="950" width="114" height="52" as="geometry">
                        <mxRectangle width="114" height="52" as="alternateBounds"/>
                    </mxGeometry>
                </mxCell>
                <mxCell id="654" value="" style="swimlane;fontStyle=0;connectable=0;fillColor=none;startSize=0;collapsible=0;recursiveResize=0;expand=0;pointerEvents=0;fontSize=23;" parent="644" vertex="1">
                    <mxGeometry x="1064" width="114" height="52" as="geometry">
                        <mxRectangle width="114" height="52" as="alternateBounds"/>
                    </mxGeometry>
                </mxCell>
                <mxCell id="677" value="" style="verticalLabelPosition=bottom;shadow=0;dashed=0;align=center;html=1;verticalAlign=top;strokeWidth=1;shape=mxgraph.mockup.graphics.columnChart;strokeColor=none;strokeColor2=none;strokeColor3=#666666;fillColor2=#008cff;fillColor3=#dddddd;fontSize=20;" parent="1" vertex="1">
                    <mxGeometry x="603" y="550" width="400" height="200" as="geometry"/>
                </mxCell>
                <mxCell id="678" value="" style="verticalLabelPosition=bottom;shadow=0;dashed=0;align=center;html=1;verticalAlign=top;strokeWidth=1;shape=mxgraph.mockup.graphics.lineChart;strokeColor=none;strokeColor2=#666666;strokeColor3=#008cff;strokeColor4=#dddddd;fontSize=20;" parent="1" vertex="1">
                    <mxGeometry x="1165" y="550" width="400" height="200" as="geometry"/>
                </mxCell>
                <mxCell id="873" value="" style="group" parent="1" vertex="1" connectable="0">
                    <mxGeometry x="160" y="416.25" width="374.99999999999994" height="708.75" as="geometry"/>
                </mxCell>
                <mxCell id="467" value="" style="rounded=0;whiteSpace=wrap;html=1;fontFamily=Verdana;fontSize=36;container=0;" parent="873" vertex="1">
                    <mxGeometry width="374.99999999999994" height="708.75" as="geometry"/>
                </mxCell>
                <mxCell id="860" value="Tableau de bord" style="text;html=1;strokeColor=none;fillColor=none;align=left;verticalAlign=middle;whiteSpace=wrap;rounded=0;fontSize=30;container=0;" parent="873" vertex="1">
                    <mxGeometry x="30" y="47.5" width="222.5" height="30" as="geometry"/>
                </mxCell>
                <mxCell id="861" value="Base de donées" style="text;html=1;strokeColor=none;fillColor=none;align=left;verticalAlign=middle;whiteSpace=wrap;rounded=0;fontSize=30;container=0;" parent="873" vertex="1">
                    <mxGeometry x="30" y="100" width="222.5" height="30" as="geometry"/>
                </mxCell>
                <mxCell id="862" value="Chiffrage" style="text;html=1;strokeColor=none;fillColor=none;align=left;verticalAlign=middle;whiteSpace=wrap;rounded=0;fontSize=30;container=0;" parent="873" vertex="1">
                    <mxGeometry x="30" y="150" width="222.5" height="30" as="geometry"/>
                </mxCell>
                <mxCell id="864" value="Gestion du profil" style="text;html=1;strokeColor=none;fillColor=none;align=left;verticalAlign=middle;whiteSpace=wrap;rounded=0;fontSize=30;container=0;" parent="873" vertex="1">
                    <mxGeometry x="30" y="558" width="222.5" height="30" as="geometry"/>
                </mxCell>
                <mxCell id="863" value="Administration" style="text;html=1;strokeColor=none;fillColor=none;align=left;verticalAlign=middle;whiteSpace=wrap;rounded=0;fontSize=30;container=0;" parent="873" vertex="1">
                    <mxGeometry x="30" y="603" width="222.5" height="30" as="geometry"/>
                </mxCell>
                <mxCell id="676" value="Footer copyright FinDev&amp;nbsp;" style="rounded=0;whiteSpace=wrap;html=1;fontSize=20;" parent="1" vertex="1">
                    <mxGeometry x="160" y="1065" width="1600" height="60" as="geometry"/>
                </mxCell>
                <mxCell id="522" value="" style="group" parent="1" vertex="1" connectable="0">
                    <mxGeometry x="1371" y="300" width="300" height="193.75" as="geometry"/>
                </mxCell>
                <mxCell id="523" value="" style="rounded=0;whiteSpace=wrap;html=1;fontSize=20;" parent="522" vertex="1">
                    <mxGeometry width="300" height="150" as="geometry"/>
                </mxCell>
                <mxCell id="524" value="" style="verticalLabelPosition=bottom;shadow=0;dashed=0;align=center;html=1;verticalAlign=top;strokeWidth=1;shape=mxgraph.mockup.graphics.simpleIcon;strokeColor=#999999;fontSize=20;" parent="522" vertex="1">
                    <mxGeometry x="198" y="33.75" width="80" height="80" as="geometry"/>
                </mxCell>
                <mxCell id="525" value="LOREM" style="text;html=1;strokeColor=none;fillColor=none;align=left;verticalAlign=middle;whiteSpace=wrap;rounded=0;fontSize=30;" parent="522" vertex="1">
                    <mxGeometry x="15" y="83.75" width="120" height="30" as="geometry"/>
                </mxCell>
                <mxCell id="526" value="" style="rounded=0;whiteSpace=wrap;html=1;fontSize=20;" parent="522" vertex="1">
                    <mxGeometry y="150" width="300" height="43.75" as="geometry"/>
                </mxCell>
                <mxCell id="527" value="Plus de détails" style="text;html=1;strokeColor=none;fillColor=none;align=left;verticalAlign=middle;whiteSpace=wrap;rounded=0;fontSize=20;fontStyle=2" parent="522" vertex="1">
                    <mxGeometry x="10" y="158.75" width="160" height="30" as="geometry"/>
                </mxCell>
                <mxCell id="528" value="150.000 K" style="text;html=1;strokeColor=none;fillColor=none;align=left;verticalAlign=middle;whiteSpace=wrap;rounded=0;fontSize=30;fontStyle=1" parent="522" vertex="1">
                    <mxGeometry x="15" y="33.75" width="150" height="30" as="geometry"/>
                </mxCell>
                <mxCell id="866" value="" style="sketch=0;outlineConnect=0;fillColor=#eeeeee;strokeColor=#36393d;dashed=0;verticalLabelPosition=bottom;verticalAlign=top;align=center;html=1;fontSize=12;fontStyle=0;aspect=fixed;pointerEvents=1;shape=mxgraph.aws4.user;" parent="1" vertex="1">
                    <mxGeometry x="190" y="313" width="62" height="62" as="geometry"/>
                </mxCell>
            </root>
        </mxGraphModel>
    </diagram>
</mxfile>